<svg xmlns:dc="http://purl.org/dc/elements/1.1/" xmlns:cc="http://creativecommons.org/ns#" xmlns:rdf="http://www.w3.org/1999/02/22-rdf-syntax-ns#" xmlns:svg="http://www.w3.org/2000/svg" xmlns="http://www.w3.org/2000/svg" xmlns:sodipodi="http://sodipodi.sourceforge.net/DTD/sodipodi-0.dtd" xmlns:inkscape="http://www.inkscape.org/namespaces/inkscape" version="1.1" id="svg227" sodipodi:docname="logo 1.cdr" viewBox="216.48 289.06 179.04 214.53">
  <metadata id="metadata233">
    <rdf:RDF>
      <cc:Work rdf:about="">
        <dc:format>image/svg+xml</dc:format>
        <dc:type rdf:resource="http://purl.org/dc/dcmitype/StillImage"/>
      </cc:Work>
    </rdf:RDF>
  </metadata>
  <defs id="defs231"/>
  <sodipodi:namedview pagecolor="#ffffff" bordercolor="#666666" borderopacity="1" objecttolerance="10" gridtolerance="10" guidetolerance="10" inkscape:pageopacity="0" inkscape:pageshadow="2" inkscape:window-width="640" inkscape:window-height="480" id="namedview229"/>
  <path d="m 220.5899,330.874 c 4.1555,-1.6787 4.8557,-1.1353 10.654,-4.1593 3.0832,-1.6081 6.3995,-4.3242 8.3214,-6.8 4.8523,-6.2504 6.4343,-12.9195 7.412,-20.6699 0.2738,-2.1702 0.165,-1.5325 7.3939,-2.4378 21.7735,-2.727 44.9484,-5.1381 67.0589,-3.1567 4.8988,0.4388 9.7708,0.5581 14.6855,1.1585 4.7741,0.5834 9.5485,1.0233 14.2954,1.5282 3.3882,0.3603 11.8573,1.6186 14.381,1.7164 -0.1653,8.996 3.4398,16.8363 7.768,21.7363 4.472,5.0632 10.5424,8.3554 18.6251,11.1197 2.09,35.7067 -2.3414,76.9624 -17.9867,108.2444 -3.6751,7.3482 -7.7882,13.5425 -12.2587,19.4159 -5.0125,6.5857 -9.9264,11.1268 -15.5778,16.107 -8.3509,7.3599 -18.7637,13.1933 -28.9758,18.5553 l -7.8431,4.1315 c -4.1389,2.2887 -2.564,2.4183 -8.0119,-0.4314 -26.9467,-14.0961 -47.8675,-29.0826 -62.2233,-56.7916 -10.6903,-20.6342 -16.3207,-53.4203 -17.0172,-78.0216 -0.2897,-10.2373 -1.1095,-20.9186 -0.7007,-31.2449 z m -4.11,-2.999 v 10.9082 l 1.3167,29.3826 c 2.3581,27.1749 5.2061,50.9984 17.6309,75.0724 14.4564,28.0103 37.9797,44.1927 65.3692,58.25 6.1064,3.134 3.5876,2.6652 10.0494,-0.8393 6.823,-3.7004 13.2925,-6.842 19.921,-10.8006 23.7663,-14.1936 39.2389,-32.4621 49.974,-57.5484 2.9015,-6.781 5.9454,-15.4565 7.7063,-23.3155 0.9113,-4.0675 1.8598,-8.1862 2.7615,-12.5524 1.6948,-8.2046 2.7448,-18.9522 3.49,-27.415 0.2137,-2.4273 0.4414,-13.6531 0.8212,-14.7889 v -13.5839 l -0.5,-12.6286 c -6.8976,-1.8644 -15.3352,-5.9239 -19.3374,-10.6249 -5.5021,-6.4624 -6.7453,-11.8298 -7.0518,-22.7316 -4.5068,-0.8727 -10.3121,-1.3858 -15.1049,-1.9128 -14.745,-1.622 -32.6484,-3.6164 -47.2859,-3.6876 -16.8489,-0.0816 -31.6131,1.2725 -47.952,3.2681 l -14.7691,2.0197 c -1.1931,9.8515 -1.9068,16.5206 -7.1022,23.1395 -4.953,6.3096 -11.2949,7.8006 -19.9369,10.389 z" style="fill:#d6b66d;fill-rule:evenodd" id="path2"/>
  <path d="m 231.1702,326.7147 c -5.7983,3.024 -6.4985,2.4806 -10.654,4.1593 -0.4088,10.3263 0.411,21.0076 0.7007,31.2449 0.6965,24.6013 6.3269,57.3874 17.0172,78.0216 14.3558,27.709 35.2766,42.6955 62.2233,56.7916 5.4479,2.8497 3.873,2.7201 8.0119,0.4314 l 7.8431,-4.1315 c 10.2121,-5.362 20.6249,-11.1954 28.9758,-18.5553 5.6514,-4.9802 10.5653,-9.5213 15.5778,-16.107 4.4705,-5.8734 8.5836,-12.0677 12.2587,-19.4159 15.6453,-31.282 20.0767,-72.5377 17.9867,-108.2444 -8.0827,-2.7643 -14.1531,-6.0565 -18.6251,-11.1197 -4.3282,-4.9 -7.9333,-12.7403 -7.768,-21.7363 -2.5237,-0.0978 -10.9928,-1.3561 -14.381,-1.7164 -4.7469,-0.5049 -9.5213,-0.9448 -14.2954,-1.5282 -4.9148,-0.6004 -9.7867,-0.7197 -14.6855,-1.1585 -22.1105,-1.9814 -45.2854,0.4297 -67.0589,3.1567 -7.2289,0.9053 -7.1201,0.2676 -7.3939,2.4378 -0.9777,7.7504 -2.5597,14.4195 -7.412,20.6699 -1.9219,2.4758 -5.2382,5.1919 -8.3214,6.8 z" style="fill:#006634;fill-rule:evenodd" id="path4"/>
  <g id="Layer1000">
    <path d="m 353.209,301.9139 c -0.2857,-3.1343 -2.9157,-2.8523 -5.6361,-3.1349 -2.6526,-0.2758 -5.3799,-0.7152 -8.2213,-0.7069 1.0148,3.3817 1.3051,2.484 5.8839,3.0469 1.999,0.2458 6.1764,0.9561 7.9735,0.7949 z" style="fill:#ffffff;fill-rule:evenodd" id="path6"/>
    <path d="m 314.9416,299.1951 11.3324,0.3138 -1.3661,-2.7107 -11.2305,-0.2466 z" style="fill:#ffffff;fill-rule:evenodd" id="path8"/>
    <path d="m 276.2623,297.6174 c 0.5207,2.459 2.5002,2.6008 5.2778,2.4293 2.41,-0.1491 4.6846,-0.5088 7.0282,-0.6707 -0.6655,-3.0209 -1.8819,-2.3445 -5.2018,-2.1317 -2.3822,0.1531 -4.7702,0.2478 -7.1042,0.3731 z" style="fill:#ffffff;fill-rule:evenodd" id="path10"/>
    <path d="m 328.4203,299.6541 10.1858,0.7857 c -0.6395,-4.1768 -7.5059,-3.3327 -11.5348,-3.3335 0.2381,1.0562 0.8181,1.8862 1.349,2.5478 z" style="fill:#ffffff;fill-rule:evenodd" id="path12"/>
    <path d="m 263.5302,298.8176 c 0.5519,2.9364 2.5155,2.5438 5.3187,2.1914 1.8768,-0.2358 5.5615,-0.1751 6.7617,-1.2271 -0.2475,-0.7727 -0.5947,-1.0987 -1.0346,-1.6344 z" style="fill:#ffffff;fill-rule:evenodd" id="path14"/>
    <path d="m 290.3346,299.1186 10.8405,-0.0215 c -0.1068,-1.0871 -0.6754,-1.6991 -1.1593,-2.4058 l -10.8584,0.1191 c 0.0802,1.0839 0.7463,1.6888 1.1772,2.3082 z" style="fill:#ffffff;fill-rule:evenodd" id="path16"/>
    <path d="m 251.2743,300.4639 1.4091,2.1133 c 1.8049,0.1238 3.7313,-0.1075 5.4032,-0.3172 l 5.0564,-1.0381 -1.2368,-1.9312 z" style="fill:#ffffff;fill-rule:evenodd" id="path18"/>
    <path d="m 303.0622,299.0171 9.8892,0.0468 -1.2382,-2.5268 -9.9521,-0.0964 z" style="fill:#ffffff;fill-rule:evenodd" id="path20"/>
    <path d="m 358.1855,453.5555 c 1.1342,0.2378 2.7953,0.4059 3.4799,-0.453 0.6431,-0.807 4.0637,-6.0148 4.3429,-7.1064 -3.2624,-0.0624 -3.4381,0.9646 -4.7687,3.0824 -1.0372,1.6509 -2.2374,2.9281 -3.0541,4.477 z" style="fill:#ffffff;fill-rule:evenodd" id="path22"/>
    <path d="m 250.8483,449.0325 c -1.4134,-2.1396 -1.4315,-3.0546 -4.7228,-3.0804 0.2591,0.7787 4.155,7.1289 4.6942,7.7987 l 3.0469,-0.2151 c -0.6854,-1.5092 -2.0738,-3.0731 -3.0183,-4.5032 z" style="fill:#ffffff;fill-rule:evenodd" id="path24"/>
    <path d="m 260.4124,460.9321 -2.7332,0.2565 c 0.5043,1.5925 4.3472,5.9471 5.1285,6.0563 0.6383,0.089 2.4253,-0.3776 2.9338,-0.6628 -0.4805,-0.7472 -4.6865,-5.1412 -5.3291,-5.65 z" style="fill:#ffffff;fill-rule:evenodd" id="path26"/>
    <path d="m 278.5402,479.4273 c 0.3016,1.2507 2.3066,2.1852 4.1638,3.5167 1.495,1.0715 3.4294,2.2807 5.1716,0.4382 l -2.0328,-1.6676 c -4.3242,-2.6725 -2.9089,-2.7995 -7.3026,-2.2873 z" style="fill:#ffffff;fill-rule:evenodd" id="path28"/>
    <path d="m 324.4039,483.3822 c 1.9868,1.8258 3.2809,0.6755 5.0463,-0.5553 0.9975,-0.6953 3.3848,-1.9389 4.0677,-3.0447 -1.7929,-1.5279 -3.7741,-0.3461 -5.1236,0.538 -0.8768,0.5746 -3.4019,2.1509 -3.9904,3.062 z" style="fill:#ffffff;fill-rule:evenodd" id="path30"/>
    <path d="m 246.9759,318.812 c 1.0338,-0.9884 1.7382,-2.8539 2.4202,-4.3662 1.0054,-2.2294 1.4848,-3.2258 -1.2203,-3.9532 -0.8065,0.9272 -2.7587,6.5089 -3.0821,7.5039 0.4898,0.2526 1.1766,0.6789 1.8822,0.8155 z" style="fill:#ffffff;fill-rule:evenodd" id="path32"/>
    <path d="m 365.0848,319.0124 1.8981,-0.9629 c -0.0981,-1.3606 -2.422,-6.3856 -3.1269,-7.3332 -0.9216,0.0876 -1.1379,0.3237 -1.8641,0.6267 0.0584,3.4404 1.9766,5.7053 3.0929,7.6694 z" style="fill:#ffffff;fill-rule:evenodd" id="path34"/>
    <path d="m 346.4671,466.924 c 3.6252,0.4759 3.2919,-0.1094 5.0264,-1.9052 0.7084,-0.733 2.8426,-2.5177 2.9271,-3.8602 l -2.9478,-0.1965 c -0.858,1.8735 -5.0023,4.485 -5.0057,5.9619 z" style="fill:#ffffff;fill-rule:evenodd" id="path36"/>
    <path d="m 230.512,406.7144 c 0.269,3.8115 0.6701,7.1623 4.2267,7.763 -0.0249,-1.495 -0.4388,-3.7489 -0.8923,-5.0987 -0.6619,-1.969 -1.2595,-2.3794 -3.3344,-2.6643 z" style="fill:#ffffff;fill-rule:evenodd" id="path38"/>
    <path d="m 271.2061,474.0222 c 0.2931,1.338 4.8637,5.6512 8.2381,3.8401 -0.58,-0.9771 -2.1847,-2.1872 -3.2993,-3.0217 -1.3166,-0.9862 -2.7048,-1.6087 -4.9388,-0.8184 z" style="fill:#ffffff;fill-rule:evenodd" id="path40"/>
    <path d="m 332.6479,477.8623 c 1.9956,1.2586 3.3358,0.5309 4.9026,-0.6222 1.5525,-1.1427 2.6504,-1.7464 3.4418,-3.3701 -2.2796,-0.3535 -3.568,0.007 -5.0803,1.0125 -0.9884,0.6574 -2.8111,2.215 -3.2641,2.9798 z" style="fill:#ffffff;fill-rule:evenodd" id="path42"/>
    <path d="m 309.5657,493.7196 c 2.1623,-0.2004 5.7396,-2.211 6.9806,-3.6173 -1.4437,-1.7478 -2.3647,-1.1903 -4.324,-0.2795 -1.4122,0.6565 -3.0656,1.3768 -3.6595,2.7266 z" style="fill:#ffffff;fill-rule:evenodd" id="path44"/>
    <path d="m 316.3365,487.9423 c 0.222,0.3512 -0.1139,0.006 0.438,0.5335 2.342,2.2371 8.0144,-2.9999 8.1275,-3.1737 -2.8647,-1.6115 -6.7609,0.7869 -8.5655,2.6402 z" style="fill:#ffffff;fill-rule:evenodd" id="path46"/>
    <path d="m 289.245,486.959 c 2.9673,1.7744 5.3473,3.6708 6.6489,0.769 -3.2556,-1.7178 -3.9053,-3.4311 -8.6967,-2.5523 0.4907,1.0108 1.0554,1.1897 2.0478,1.7833 z" style="fill:#ffffff;fill-rule:evenodd" id="path48"/>
    <path d="m 381.2729,397.3629 c 3.4344,-0.4482 3.3514,-2.7859 3.5059,-7.393 -2.1768,0.134 -2.5614,0.3858 -3.0252,2.332 -0.3722,1.5608 -0.4291,3.4047 -0.4807,5.061 z" style="fill:#ffffff;fill-rule:evenodd" id="path50"/>
    <path d="m 244.3357,319.1057 c -1.3269,0.9541 -1.6764,1.8196 -2.6308,2.9869 -0.527,0.6448 -2.4585,2.8995 -0.8765,3.5419 1.7353,0.7044 5.0689,-3.9172 5.1831,-5.7538 z" style="fill:#ffffff;fill-rule:evenodd" id="path52"/>
    <path d="m 295.6867,490.1023 c 0.4615,0.8969 1.6605,1.4734 2.9183,2.141 2.8822,1.5296 3.8486,2.3508 5.0193,-0.4918 -5.144,-2.1861 -5.2495,-3.9662 -7.9376,-1.6492 z" style="fill:#ffffff;fill-rule:evenodd" id="path54"/>
    <path d="m 238.0127,430.2887 c 0.4913,1.5806 1.0962,3.1383 1.7737,4.6211 0.8526,1.8663 1.6259,2.1333 3.8491,2.3748 -0.407,-1.5794 -1.2271,-3.0084 -1.8246,-4.4141 -1.0012,-2.355 -0.8929,-2.4287 -3.7982,-2.5818 z" style="fill:#ffffff;fill-rule:evenodd" id="path56"/>
    <path d="m 381.5719,406.7906 c -2.4755,0.0854 -2.662,0.6656 -3.1929,2.7899 -0.4056,1.6231 -0.9181,3.2451 -1.0729,5.0068 l 2.7884,-0.9014 z" style="fill:#ffffff;fill-rule:evenodd" id="path58"/>
    <path d="m 368.4328,437.3254 c 2.6609,-0.2103 2.9157,-0.5606 3.9126,-2.58 0.8326,-1.6864 1.1892,-2.6003 1.7468,-4.3575 -2.8157,-0.1737 -2.9759,0.5415 -3.7897,2.5509 -0.6468,1.5962 -1.4525,2.7051 -1.8697,4.3866 z" style="fill:#ffffff;fill-rule:evenodd" id="path60"/>
    <path d="m 366.0097,320.4221 c 1.0741,1.8516 2.6612,4.6182 4.6143,5.5775 l 1.4765,-1.2575 c -0.4442,-1.4853 -3.3185,-4.6618 -4.2168,-5.5752 z" style="fill:#ffffff;fill-rule:evenodd" id="path62"/>
    <path d="m 248.6976,309.1742 1.8902,1.0038 c 0.9853,-2.5413 1.4408,-3.2273 1.5409,-6.556 -0.493,-0.7211 -1.2716,-1.3365 -2.033,-1.6642 -0.4992,0.8413 -1.3402,5.8739 -1.3981,7.2164 z" style="fill:#ffffff;fill-rule:evenodd" id="path64"/>
    <path d="m 229.466,403.204 c 0.4688,1.9151 0.9127,2.2427 3.1068,2.4315 -0.1636,-3.9744 -0.5814,-6.8952 -3.8784,-7.2575 0.0944,1.542 0.4093,3.346 0.7716,4.826 z" style="fill:#ffffff;fill-rule:evenodd" id="path66"/>
    <path d="m 379.6123,405.7038 c 1.9097,-0.6043 2.4274,-0.1261 3.0127,-2.4468 0.3847,-1.5265 0.6491,-3.1862 0.7172,-4.8935 -2.077,0.2792 -2.668,0.7957 -3.1343,2.7182 -0.2693,1.1097 -0.7271,3.4993 -0.5956,4.6221 z" style="fill:#ffffff;fill-rule:evenodd" id="path68"/>
    <path d="m 241.8704,438.3578 c 0.4442,1.8559 1.0981,2.9951 1.8524,4.3419 1.1328,2.0228 1.2765,1.9981 3.9972,2.0128 -0.3178,-1.2206 -1.3561,-2.8689 -1.988,-3.9979 -1.0817,-1.9327 -1.3314,-2.0855 -3.8616,-2.3568 z" style="fill:#ffffff;fill-rule:evenodd" id="path70"/>
    <path d="m 234.7359,331.0778 c 1.8757,-0.3931 4.737,-2.6736 5.4663,-3.9359 -0.4068,-0.6174 -0.7815,-1.0046 -1.1463,-1.5792 -1.0477,0.1477 -5.0097,3.0861 -5.5744,3.9793 0.2382,1.0154 0.4508,1.01 1.2544,1.5358 z" style="fill:#ffffff;fill-rule:evenodd" id="path72"/>
    <path d="m 377.2959,331.158 c 0.6843,-0.5014 0.9102,-1.0539 1.3478,-1.616 -0.57,-0.8583 -4.0957,-3.5132 -5.4277,-3.8931 -0.5511,0.3356 -0.9607,0.6338 -1.3711,1.0491 0.9881,1.8992 3.2898,3.8427 5.451,4.46 z" style="fill:#ffffff;fill-rule:evenodd" id="path74"/>
    <path d="m 225.9947,380.3173 2.5721,0.7753 -0.6692,-7.041 -2.6175,-0.7197 z" style="fill:#ffffff;fill-rule:evenodd" id="path76"/>
    <path d="m 227.2629,389.9123 c 0.059,1.6447 0.2886,3.5014 0.6327,5.0114 0.4589,2.014 0.9176,2.2436 3.0917,2.3303 l -1.3824,-6.9142 z" style="fill:#ffffff;fill-rule:evenodd" id="path78"/>
    <path d="m 364.3906,444.6986 c 2.8993,-0.1269 2.7176,0.0239 3.9849,-2.154 0.6211,-1.0675 1.548,-2.7689 1.9605,-4.07 -2.4047,0.038 -2.9452,0.4142 -3.9943,2.2618 -0.6256,1.1012 -1.6711,2.7054 -1.9511,3.9622 z" style="fill:#ffffff;fill-rule:evenodd" id="path80"/>
    <path d="m 386.6102,373.1431 -2.478,0.942 -0.4195,7.1733 2.4607,-0.9286 z" style="fill:#ffffff;fill-rule:evenodd" id="path82"/>
    <path d="m 360.0771,303.1217 c -0.2803,2.6402 0.5706,5.1401 1.3856,6.9678 l 1.7113,-0.9167 c 0.0833,-1.7626 -0.7288,-5.167 -0.999,-7.0427 z" style="fill:#ffffff;fill-rule:evenodd" id="path84"/>
    <path d="m 379.9247,330.2858 c -0.5672,0.6789 -0.8569,0.7348 -1.0528,2.0345 2.1853,0.9102 5.3819,3.9659 7.3684,0.8217 -0.7427,-0.68 -5.5502,-2.7714 -6.3156,-2.8562 z" style="fill:#ffffff;fill-rule:evenodd" id="path86"/>
    <path d="m 223.9438,340.8106 c 0.8218,0.2384 1.4607,0.6539 2.5665,0.6313 l -0.0224,-6.1073 -2.5413,-1.4142 z" style="fill:#ffffff;fill-rule:evenodd" id="path88"/>
    <path d="m 226.3646,382.009 c -0.106,1.7655 -0.032,3.0929 0.322,4.807 0.377,1.827 0.9244,1.8839 2.8165,2.0373 -0.0411,-1.5004 -0.1908,-3.3404 -0.4428,-4.6729 -0.3574,-1.8902 -0.7803,-2.0186 -2.6957,-2.1714 z" style="fill:#ffffff;fill-rule:evenodd" id="path90"/>
    <path d="m 382.7188,388.9517 c 2.3142,-0.8113 2.8231,0.5354 3.1635,-6.8211 -1.8096,0.006 -2.5917,0.586 -2.9194,2.2604 -0.1993,1.0176 -0.4442,3.5804 -0.2441,4.5607 z" style="fill:#ffffff;fill-rule:evenodd" id="path92"/>
    <path d="m 340.1334,472.335 c 2.3,1.0182 2.9973,0.4368 4.4334,-0.7962 0.7616,-0.6545 2.5092,-2.0532 2.6835,-3.206 -2.9934,-0.2971 -2.5801,-0.2744 -4.4195,1.228 -0.8557,0.699 -2.4097,1.773 -2.6974,2.7742 z" style="fill:#ffffff;fill-rule:evenodd" id="path94"/>
    <path d="m 237.0986,421.9211 c -0.0896,-1.2098 -0.6645,-3.2383 -1.1112,-4.354 -0.6446,-1.6086 -1.2422,-1.9046 -3.229,-2.1503 0.4547,4.3421 1.0639,6.0922 4.3402,6.5043 z" style="fill:#ffffff;fill-rule:evenodd" id="path96"/>
    <path d="m 223.9447,342.2928 c -0.1724,5.9749 -0.6273,6.4882 2.5616,6.8406 0.0862,-1.4009 0.1829,-3.327 0.0414,-4.7055 -0.1769,-1.7292 -1.0383,-1.8598 -2.603,-2.1351 z" style="fill:#ffffff;fill-rule:evenodd" id="path98"/>
    <path d="m 225.8484,332.9019 c 1.8833,3.7361 7.1065,-0.5618 7.4951,-1.1999 -0.3093,-0.8039 -0.6378,-0.8869 -1.2742,-1.442 z" style="fill:#ffffff;fill-rule:evenodd" id="path100"/>
    <path d="m 239.8632,429.1413 c -0.449,-3.4121 -1.2796,-5.5871 -4.7027,-6.1359 0.4187,3.3962 1.0729,5.8175 4.7027,6.1359 z" style="fill:#ffffff;fill-rule:evenodd" id="path102"/>
    <path d="m 388.0607,350.2003 c -2.9528,-0.0158 -2.7861,1.2955 -2.7822,4.0618 l -0.009,0.7203 0.0947,2.1101 2.4894,-0.9085 z" style="fill:#ffffff;fill-rule:evenodd" id="path104"/>
    <path d="m 374.809,422.0308 c 2.1481,-0.1425 2.744,-0.5096 3.4345,-2.2566 0.4578,-1.1585 0.9196,-2.9251 1.0446,-4.3064 -3.3529,0.7129 -3.8934,3.1153 -4.4791,6.563 z" style="fill:#ffffff;fill-rule:evenodd" id="path106"/>
    <path d="m 264.7681,468.3444 c 2.0044,2.2808 2.3797,4.9025 7.2961,4.1043 -0.0414,-0.8439 -1.9296,-2.4353 -2.7136,-3.0385 -1.3269,-1.021 -2.5824,-1.1979 -4.5825,-1.0658 z" style="fill:#ffffff;fill-rule:evenodd" id="path108"/>
    <path d="m 353.5121,459.8626 c 2.7235,0.2948 2.5364,0.2511 3.9447,-1.3604 0.6587,-0.7537 1.8167,-2.0168 2.196,-3.4871 -2.939,0.0368 -2.6297,-0.0859 -4.1307,1.5519 -0.786,0.8578 -1.7334,1.8116 -2.01,3.2956 z" style="fill:#ffffff;fill-rule:evenodd" id="path110"/>
    <path d="m 387.3226,365.4023 c -1.6651,0.286 -2.4253,0.3591 -2.7128,2.1296 -0.2211,1.3621 -0.2231,3.4053 -0.1709,4.864 l 2.4236,-0.6004 z" style="fill:#ffffff;fill-rule:evenodd" id="path112"/>
    <path d="m 252.4487,455.0729 c 0.8799,1.6194 2.2213,3.6091 3.407,4.9734 0.9436,-0.009 2.2289,-0.0774 2.8718,-0.4241 -0.4641,-1.1806 -1.552,-2.3941 -2.2867,-3.2272 -1.4168,-1.6067 -1.179,-1.433 -3.9921,-1.3221 z" style="fill:#ffffff;fill-rule:evenodd" id="path114"/>
    <path d="m 225.123,371.5566 2.5316,0.7923 c 0.0173,-1.4596 0.0131,-3.4127 -0.1953,-4.8413 -0.2437,-1.6713 -1.0173,-1.8584 -2.7323,-2.1215 z" style="fill:#ffffff;fill-rule:evenodd" id="path116"/>
    <path d="m 224.208,356.2106 2.5557,0.8595 -0.0757,-6.3502 -2.4616,-0.7273 z" style="fill:#ffffff;fill-rule:evenodd" id="path118"/>
    <path d="m 388.1809,340.5815 -0.1207,-6.5352 -2.4052,1.2551 0.0601,6.304 z" style="fill:#ffffff;fill-rule:evenodd" id="path120"/>
    <path d="m 372.2559,429.103 c 2.1846,-0.0995 2.5855,-9e-4 3.3349,-1.8907 0.4958,-1.2498 1.0497,-2.721 1.2629,-4.1423 -3.3835,0.5485 -4.0785,2.7624 -4.5978,6.033 z" style="fill:#ffffff;fill-rule:evenodd" id="path122"/>
    <path d="m 384.929,364.5666 c 3.7525,-0.6111 2.8369,-2.9894 2.814,-6.7065 l -2.5359,0.9683 z" style="fill:#ffffff;fill-rule:evenodd" id="path124"/>
    <path d="m 385.566,349.1005 c 0.8478,-0.0856 1.9034,-0.3793 2.5049,-0.7189 l -0.008,-6.0604 c -0.8095,0.2982 -1.8008,0.7024 -2.5268,1.1684 z" style="fill:#ffffff;fill-rule:evenodd" id="path126"/>
    <path d="m 224.5232,363.5603 2.562,1.0188 -0.1477,-5.6563 -2.5549,-1.1344 z" style="fill:#ffffff;fill-rule:evenodd" id="path128"/>
    <path d="m 360.9567,300.7769 -6.8973,-1.1787 c 0.1361,1.7244 0.9267,2.935 2.8231,3.1094 3.2159,0.2959 2.5784,-0.3793 4.0742,-1.9307 z" style="fill:#ffffff;fill-rule:evenodd" id="path130"/>
    <path d="m 303.5968,494.6621 c 1.0046,0.8873 2.4522,1.1384 3.7797,0.6542 l 1.1735,-0.6542 c -0.3727,-1.5534 -0.7299,-1.9794 -2.535,-1.9207 -1.5726,0.051 -2.0764,0.5904 -2.4182,1.9207 z" style="fill:#ffffff;fill-rule:evenodd" id="path132"/>
  </g>
  <g id="Layer1001">
    <path d="m 265.1125,305.0529 c 1.3929,-0.0504 2.5262,0.3544 3.3976,1.217 0.8714,0.8645 1.3071,1.9428 1.3071,3.2411 0,1.1069 -0.3257,2.0815 -0.9749,2.9242 -0.8603,1.1157 -2.0749,1.6747 -3.6462,1.6747 -1.5755,0 -2.7921,-0.5326 -3.6524,-1.5976 -0.68,-0.8427 -1.0211,-1.8394 -1.0211,-2.9948 0,-1.2983 0.4423,-2.3785 1.3269,-3.2434 0.8845,-0.8668 1.9715,-1.2716 3.263,-1.2212 z m 0.0771,0.4094 c -0.803,0 -1.4125,0.407 -1.8329,1.2234 -0.341,0.669 -0.5105,1.6305 -0.5105,2.8848 0,1.4896 0.2642,2.592 0.79,3.3049 0.3674,0.4972 0.8802,0.7458 1.5404,0.7458 0.4444,0 0.8161,-0.1077 1.1131,-0.3211 0.3787,-0.275 0.6755,-0.7152 0.887,-1.3181 0.2112,-0.603 0.3166,-1.3907 0.3166,-2.3588 0,-1.1551 -0.1077,-2.0199 -0.3234,-2.592 -0.2154,-0.5743 -0.4907,-0.9793 -0.8252,-1.2146 -0.3342,-0.2356 -0.7194,-0.3543 -1.1551,-0.3543 z m 17.5547,-0.3036 -5.1378,8.2647 h 1.6634 c 0.7857,0 1.3356,-0.0508 1.6503,-0.1497 0.5105,-0.1542 0.9507,-0.4402 1.3204,-0.8583 0.3696,-0.4159 0.6247,-0.9726 0.7679,-1.6722 h 0.2508 l -0.3543,3.1686 h -8.0028 l 5.1466,-8.278 h -1.2982 c -0.5018,0 -0.834,0.0156 -0.9925,0.0462 -0.3013,0.0552 -0.585,0.1652 -0.8492,0.3302 -0.2639,0.1672 -0.4842,0.3872 -0.6579,0.6622 -0.1738,0.2752 -0.3101,0.6227 -0.4094,1.0431 h -0.2398 l 0.2379,-2.5568 z m 6.6081,4.1079 c 0.834,0.1937 1.4213,0.4292 1.7581,0.7042 0.4841,0.3917 0.7259,0.9 0.7259,1.525 0,0.6579 -0.2639,1.2036 -0.7943,1.6348 -0.6491,0.5215 -1.593,0.7812 -2.8295,0.7812 h -4.445 v -0.2245 c 0.4051,0 0.68,-0.0374 0.8229,-0.1143 0.1454,-0.0748 0.2466,-0.174 0.3039,-0.295 0.0592,-0.1211 0.0878,-0.4201 0.0878,-0.8978 V 306.69 c 0,-0.4774 -0.0286,-0.7767 -0.0878,-0.8998 -0.0573,-0.1233 -0.1608,-0.2222 -0.3059,-0.297 -0.1474,-0.0726 -0.4204,-0.11 -0.8209,-0.11 v -0.2245 h 4.1941 c 1.0032,0 1.7119,0.0901 2.13,0.2684 0.4181,0.1783 0.7458,0.4445 0.9879,0.7988 0.2398,0.3541 0.3608,0.7325 0.3608,1.131 0,0.4224 -0.1539,0.7966 -0.462,1.1265 -0.3082,0.328 -0.8493,0.5896 -1.626,0.7832 z m -2.3502,-0.1737 c 0.6163,0 1.0718,-0.0683 1.3643,-0.2069 0.2926,-0.1364 0.5171,-0.33 0.6732,-0.5809 0.1562,-0.2486 0.2356,-0.5677 0.2356,-0.955 0,-0.3872 -0.0771,-0.7041 -0.231,-0.9504 -0.1542,-0.2486 -0.3742,-0.4357 -0.6625,-0.5655 -0.286,-0.1299 -0.7458,-0.1914 -1.3796,-0.1871 z m 0,0.5017 v 2.8032 0.3234 c 0,0.2313 0.0573,0.4074 0.1738,0.5239 0.1168,0.1187 0.2883,0.1783 0.5173,0.1783 0.3387,0 0.6491,-0.0771 0.9351,-0.2291 0.2861,-0.1516 0.5038,-0.3716 0.6557,-0.6621 0.1519,-0.2883 0.2288,-0.6118 0.2288,-0.9661 0,-0.407 -0.0859,-0.7721 -0.2552,-1.0959 -0.1717,-0.3234 -0.4226,-0.5522 -0.7571,-0.6842 -0.3342,-0.1319 -0.834,-0.1959 -1.4984,-0.1914 z m 8.8875,-3.9342 v 3.5646 h 0.174 c 0.5567,0 0.9593,-0.1738 1.2101,-0.5216 0.2486,-0.3475 0.4093,-0.8603 0.4774,-1.5381 h 0.2508 v 4.5814 h -0.2508 c -0.0505,-0.4995 -0.1605,-0.9088 -0.3254,-1.2257 -0.1673,-0.3192 -0.3589,-0.5327 -0.5789,-0.6426 -0.2199,-0.11 -0.5391,-0.165 -0.9572,-0.165 v 2.4602 c 0,0.4819 0.0198,0.7744 0.0618,0.8821 0.0394,0.108 0.1165,0.1959 0.2287,0.2642 0.1123,0.0683 0.2926,0.1035 0.5414,0.1035 h 0.5236 c 0.8164,0 1.472,-0.1894 1.965,-0.5655 0.4929,-0.3765 0.8472,-0.9508 1.0607,-1.7252 h 0.2398 l -0.394,2.7791 h -7.5538 v -0.2245 h 0.288 c 0.2532,0 0.4578,-0.0462 0.6117,-0.1364 0.1123,-0.0615 0.1982,-0.1649 0.2577,-0.3123 0.0462,-0.1035 0.0703,-0.3765 0.0703,-0.8187 v -5.7693 c 0,-0.3983 -0.011,-0.6427 -0.0329,-0.7351 -0.0419,-0.1519 -0.121,-0.2684 -0.2378,-0.3498 -0.1627,-0.121 -0.3849,-0.1825 -0.669,-0.1825 h -0.288 v -0.2245 h 7.314 v 2.5874 h -0.2509 c -0.1233,-0.6335 -0.2993,-1.0868 -0.5235,-1.362 -0.2245,-0.275 -0.5415,-0.4774 -0.9531,-0.6072 -0.2398,-0.0771 -0.6885,-0.1165 -1.3487,-0.1165 z m 10.7138,2.8559 3.0654,3.8551 c 0.4334,0.5437 0.8073,0.9134 1.1222,1.1092 0.2265,0.1386 0.4686,0.2067 0.7217,0.2067 v 0.2245 h -4.5439 v -0.2245 c 0.2883,-0.0264 0.4731,-0.0726 0.5567,-0.1364 0.0836,-0.066 0.1253,-0.1451 0.1253,-0.242 0,-0.1826 -0.1956,-0.5259 -0.5919,-1.0299 l -2.0024,-2.5171 -0.3277,0.2639 v 2.3941 c 0,0.4598 0.0264,0.7461 0.0771,0.8581 0.0528,0.1122 0.1517,0.2091 0.2991,0.2882 0.1474,0.0814 0.383,0.1211 0.7064,0.1211 v 0.2245 h -4.4096 v -0.2245 h 0.2883 c 0.2531,0 0.4575,-0.0462 0.6117,-0.1364 0.1123,-0.0615 0.1979,-0.1649 0.2574,-0.3123 0.0462,-0.1035 0.0703,-0.3765 0.0703,-0.8187 v -5.7693 c 0,-0.4513 -0.0241,-0.7328 -0.0703,-0.8451 -0.0485,-0.1122 -0.1431,-0.2111 -0.286,-0.2948 -0.1432,-0.0858 -0.3368,-0.1275 -0.5831,-0.1275 h -0.2883 v -0.2245 h 4.3435 v 0.2245 c -0.2948,0 -0.5215,0.0439 -0.6754,0.1298 -0.1123,0.0615 -0.2002,0.1627 -0.264,0.3059 -0.0507,0.1077 -0.0771,0.3849 -0.0771,0.8317 v 2.7306 l 3.2545,-2.6184 c 0.451,-0.3719 0.6755,-0.6712 0.6755,-0.8935 0,-0.1672 -0.0924,-0.297 -0.2772,-0.3937 -0.0947,-0.0485 -0.328,-0.0794 -0.7022,-0.0924 v -0.2245 h 3.4042 v 0.2245 c -0.3059,0.0218 -0.5457,0.0768 -0.7195,0.1669 -0.174,0.0882 -0.5743,0.3918 -1.2016,0.9068 z m 9.5896,5.171 v 0.2245 h -4.5547 v -0.2245 h 0.288 c 0.2531,0 0.4578,-0.0462 0.6117,-0.1364 0.1123,-0.0615 0.1982,-0.1649 0.2577,-0.3123 0.0462,-0.1035 0.0703,-0.3765 0.0703,-0.8187 v -5.7693 c 0,-0.4513 -0.0241,-0.7328 -0.0703,-0.8451 -0.0485,-0.1122 -0.1432,-0.2111 -0.2863,-0.2948 -0.1429,-0.0858 -0.3365,-0.1275 -0.5831,-0.1275 h -0.288 v -0.2245 h 4.5547 v 0.2245 h -0.2883 c -0.2508,0 -0.4532,0.0462 -0.6072,0.1363 -0.1102,0.0615 -0.1981,0.165 -0.2619,0.3124 -0.0462,0.1035 -0.0706,0.3762 -0.0706,0.8187 v 5.7693 c 0,0.451 0.0244,0.7328 0.0729,0.845 0.0504,0.1123 0.1451,0.2112 0.288,0.2948 0.1431,0.0859 0.3367,0.1276 0.5788,0.1276 z m 6.5239,-8.7268 0.0661,2.9177 h -0.2639 c -0.1256,-0.7305 -0.4315,-1.3181 -0.9199,-1.7625 -0.4906,-0.4445 -1.0187,-0.6668 -1.5865,-0.6668 -0.4399,0 -0.7878,0.1168 -1.0429,0.3521 -0.2574,0.2333 -0.3852,0.504 -0.3852,0.8076 0,0.1936 0.0462,0.3654 0.1366,0.517 0.123,0.2004 0.3235,0.4006 0.6007,0.5987 0.2024,0.1409 0.669,0.3937 1.3994,0.7546 1.0253,0.5017 1.7161,0.9771 2.0727,1.4238 0.3544,0.4468 0.5304,0.957 0.5304,1.5336 0,0.7305 -0.286,1.3578 -0.8561,1.8836 -0.5697,0.5258 -1.2937,0.79 -2.1716,0.79 -0.2752,0 -0.5371,-0.0286 -0.7812,-0.0836 -0.2466,-0.055 -0.5545,-0.1607 -0.9241,-0.3169 -0.2069,-0.0859 -0.3764,-0.1276 -0.5105,-0.1276 -0.1123,0 -0.2291,0.044 -0.3544,0.1299 -0.1255,0.0878 -0.2267,0.2199 -0.3035,0.3982 h -0.2245 v -3.3006 h 0.2245 c 0.189,0.9263 0.5544,1.6347 1.0936,2.1211 0.5411,0.4862 1.1222,0.7305 1.747,0.7305 0.4818,0 0.8668,-0.1321 1.1531,-0.3937 0.286,-0.2619 0.4289,-0.5655 0.4289,-0.9156 0,-0.2047 -0.055,-0.4048 -0.165,-0.5984 -0.11,-0.1936 -0.275,-0.3762 -0.4995,-0.5522 -0.2245,-0.174 -0.6205,-0.4005 -1.1883,-0.68 -0.7965,-0.3895 -1.3685,-0.724 -1.716,-0.999 -0.3456,-0.2752 -0.6118,-0.583 -0.7989,-0.9221 -0.187,-0.341 -0.2794,-0.7149 -0.2794,-1.1222 0,-0.6973 0.2551,-1.2915 0.7679,-1.7821 0.5105,-0.4907 1.1551,-0.7351 1.934,-0.7351 0.2841,0 0.559,0.0332 0.8252,0.1012 0.2024,0.053 0.449,0.1474 0.7393,0.286 0.2905,0.1387 0.4929,0.207 0.6097,0.207 0.112,0 0.2001,-0.0329 0.2639,-0.1012 0.0638,-0.0683 0.1256,-0.2333 0.1806,-0.493 z m 9.4683,0.1982 v 2.3632 h -0.2245 c -0.1386,-0.5456 -0.2905,-0.9374 -0.4578,-1.1749 -0.1669,-0.2401 -0.3982,-0.4292 -0.6908,-0.5701 -0.1627,-0.0771 -0.449,-0.1165 -0.858,-0.1165 h -0.6602 v 6.7595 c 0,0.451 0.0241,0.7328 0.0726,0.845 0.0484,0.1123 0.1451,0.2112 0.286,0.2948 0.1431,0.0859 0.3367,0.1276 0.5831,0.1276 h 0.286 v 0.2245 h -4.5547 v -0.2245 h 0.2882 c 0.2509,0 0.4533,-0.0462 0.6072,-0.1364 0.11,-0.0615 0.1982,-0.1649 0.2619,-0.3123 0.0463,-0.1035 0.0703,-0.3765 0.0703,-0.8187 v -6.7595 h -0.6335 c -0.5854,0 -1.01,0.1253 -1.2762,0.3739 -0.3719,0.3478 -0.6052,0.8427 -0.7041,1.4876 H 324.33 v -2.3632 z m 5.3292,-0.1058 c 1.3929,-0.0504 2.5262,0.3544 3.3976,1.217 0.8713,0.8645 1.307,1.9428 1.307,3.2411 0,1.1069 -0.3257,2.0815 -0.9748,2.9242 -0.8603,1.1157 -2.075,1.6747 -3.6462,1.6747 -1.5755,0 -2.7921,-0.5326 -3.6525,-1.5976 -0.68,-0.8427 -1.021,-1.8394 -1.021,-2.9948 0,-1.2983 0.4422,-2.3785 1.3269,-3.2434 0.8844,-0.8668 1.9715,-1.2716 3.263,-1.2212 z m 0.0771,0.4094 c -0.8031,0 -1.4125,0.407 -1.8329,1.2234 -0.341,0.669 -0.5105,1.6305 -0.5105,2.8848 0,1.4896 0.2641,2.592 0.79,3.3049 0.3673,0.4972 0.8801,0.7458 1.5403,0.7458 0.4445,0 0.8161,-0.1077 1.1132,-0.3211 0.3787,-0.275 0.6755,-0.7152 0.8869,-1.3181 0.2112,-0.603 0.3167,-1.3907 0.3167,-2.3588 0,-1.1551 -0.1077,-2.0199 -0.3235,-2.592 -0.2154,-0.5743 -0.4906,-0.9793 -0.8251,-1.2146 -0.3342,-0.2356 -0.7195,-0.3543 -1.1551,-0.3543 z m 8.3814,-0.3036 4.3107,5.4218 v -3.7585 c 0,-0.5303 -0.0748,-0.8866 -0.2268,-1.0737 -0.2069,-0.2532 -0.5544,-0.3742 -1.0409,-0.3651 v -0.2245 h 2.8914 v 0.2245 c -0.3697,0.0482 -0.6183,0.11 -0.7458,0.1848 -0.1256,0.0768 -0.2245,0.2001 -0.2971,0.3716 -0.0703,0.1718 -0.1057,0.4666 -0.1057,0.8824 v 7.2879 h -0.2177 l -5.908,-7.2966 v 5.5802 c 0,0.506 0.1142,0.8493 0.3453,1.0276 0.231,0.1783 0.4974,0.2662 0.7945,0.2662 h 0.2067 v 0.2245 h -3.1159 v -0.2245 c 0.4842,-0.004 0.8187,-0.1035 1.01,-0.2991 0.1894,-0.1959 0.284,-0.5261 0.284,-0.9947 v -6.1897 l -0.1825,-0.2268 c -0.1851,-0.2375 -0.3478,-0.3937 -0.4907,-0.4685 -0.1409,-0.0749 -0.3455,-0.1165 -0.6117,-0.1253 v -0.2245 z m -85.4954,19.3875 v 2.469 c 0,0.4708 0.0286,0.7702 0.0878,0.8912 0.0573,0.123 0.1608,0.22 0.3059,0.2926 0.1477,0.0725 0.4204,0.1099 0.8209,0.1099 v 0.2245 h -4.4756 v -0.2245 c 0.4048,0 0.68,-0.0374 0.8229,-0.1122 0.1451,-0.0748 0.2466,-0.1738 0.3036,-0.2925 0.0595,-0.1211 0.0881,-0.4182 0.0881,-0.889 v -5.7166 c 0,-0.4731 -0.0286,-0.7702 -0.0881,-0.8912 -0.057,-0.1233 -0.1605,-0.22 -0.3059,-0.2926 -0.1474,-0.0725 -0.4201,-0.1099 -0.8206,-0.1099 v -0.2246 h 4.0663 c 1.0585,0 1.8306,0.0726 2.3213,0.22 0.4909,0.1451 0.8912,0.4159 1.2016,0.8119 0.3101,0.394 0.4643,0.856 0.4643,1.3864 0,0.6446 -0.2333,1.1792 -0.6976,1.6018 -0.2971,0.2685 -0.7129,0.4686 -1.2475,0.6007 l 2.0968,2.9639 c 0.2772,0.3807 0.4753,0.6182 0.5918,0.7129 0.1761,0.1321 0.383,0.2047 0.6163,0.218 v 0.2375 h -2.755 l -2.823,-3.9872 z m 0,-4.2774 v 3.8154 h 0.3673 c 0.5987,0 1.0474,-0.055 1.3445,-0.1627 0.2971,-0.11 0.5304,-0.3081 0.6999,-0.5919 0.1692,-0.284 0.2551,-0.6559 0.2551,-1.1134 0,-0.6645 -0.1562,-1.1552 -0.4686,-1.4721 -0.3126,-0.3169 -0.8141,-0.4753 -1.5074,-0.4753 z m 9.6134,0.0133 v 3.5645 h 0.174 c 0.5568,0 0.9593,-0.1737 1.2101,-0.5215 0.2486,-0.3476 0.4094,-0.8603 0.4774,-1.5381 h 0.2509 v 4.5813 h -0.2509 c -0.0505,-0.4994 -0.1604,-0.9087 -0.3254,-1.2257 -0.1673,-0.3191 -0.3589,-0.5326 -0.5788,-0.6426 -0.22,-0.11 -0.5392,-0.1649 -0.9573,-0.1649 v 2.4601 c 0,0.4819 0.0198,0.7745 0.0618,0.8822 0.0394,0.108 0.1165,0.1959 0.2287,0.2642 0.1123,0.0683 0.2926,0.1034 0.5415,0.1034 h 0.5235 c 0.8164,0 1.4721,-0.1893 1.965,-0.5655 0.4929,-0.3764 0.8473,-0.9507 1.0607,-1.7251 h 0.2398 l -0.394,2.779 h -7.5537 v -0.2245 h 0.288 c 0.2531,0 0.4577,-0.0462 0.6117,-0.1363 0.1122,-0.0615 0.1981,-0.165 0.2576,-0.3124 0.0462,-0.1034 0.0703,-0.3764 0.0703,-0.8186 v -5.7694 c 0,-0.3982 -0.011,-0.6426 -0.0328,-0.735 -0.042,-0.1519 -0.1211,-0.2684 -0.2379,-0.3498 -0.1627,-0.121 -0.3849,-0.1825 -0.6689,-0.1825 h -0.288 v -0.2246 h 7.3139 v 2.5875 h -0.2509 c -0.1233,-0.6335 -0.2993,-1.0868 -0.5235,-1.362 -0.2245,-0.275 -0.5414,-0.4774 -0.953,-0.6072 -0.2398,-0.0771 -0.6886,-0.1165 -1.3488,-0.1165 z m 11.4202,-0.6999 0.0661,2.9177 h -0.2639 c -0.1256,-0.7305 -0.4315,-1.3181 -0.9199,-1.7626 -0.4907,-0.4444 -1.0188,-0.6667 -1.5865,-0.6667 -0.44,0 -0.7878,0.1168 -1.0429,0.3521 -0.2574,0.2333 -0.3852,0.504 -0.3852,0.8076 0,0.1936 0.0462,0.3654 0.1366,0.517 0.123,0.2004 0.3234,0.4005 0.6007,0.5987 0.2024,0.1409 0.6689,0.3937 1.3994,0.7546 1.0253,0.5017 1.7161,0.9771 2.0727,1.4238 0.3543,0.4467 0.5304,0.957 0.5304,1.5336 0,0.7304 -0.286,1.3577 -0.8561,1.8836 -0.5697,0.5258 -1.2937,0.79 -2.1716,0.79 -0.2753,0 -0.5372,-0.0286 -0.7812,-0.0836 -0.2467,-0.055 -0.5545,-0.1608 -0.9241,-0.3169 -0.207,-0.0859 -0.3765,-0.1276 -0.5106,-0.1276 -0.1122,0 -0.229,0.0439 -0.3543,0.1298 -0.1256,0.0879 -0.2268,0.22 -0.3036,0.3983 h -0.2245 v -3.3007 h 0.2245 c 0.1891,0.9264 0.5545,1.6348 1.0936,2.1212 0.5412,0.4861 1.1223,0.7305 1.747,0.7305 0.4819,0 0.8669,-0.1321 1.1532,-0.3937 0.286,-0.262 0.4288,-0.5656 0.4288,-0.9156 0,-0.2047 -0.0549,-0.4048 -0.1649,-0.5984 -0.11,-0.1936 -0.275,-0.3762 -0.4995,-0.5522 -0.2245,-0.1741 -0.6205,-0.4006 -1.1883,-0.6801 -0.7965,-0.3894 -1.3685,-0.7239 -1.7161,-0.9989 -0.3455,-0.2752 -0.6117,-0.5831 -0.7988,-0.9221 -0.1871,-0.341 -0.2795,-0.7149 -0.2795,-1.1222 0,-0.6974 0.2551,-1.2915 0.7679,-1.7822 0.5105,-0.4906 1.1551,-0.735 1.9341,-0.735 0.284,0 0.559,0.0332 0.8252,0.1012 0.2024,0.053 0.449,0.1474 0.7392,0.286 0.2906,0.1386 0.493,0.2069 0.6098,0.2069 0.112,0 0.2001,-0.0328 0.2639,-0.1012 0.0638,-0.0683 0.1256,-0.2332 0.1806,-0.4929 z m 4.7021,4.9904 v 2.4293 c 0,0.4776 0.0287,0.7767 0.0882,0.9 0.0572,0.1233 0.1604,0.2222 0.3101,0.2971 0.1474,0.0725 0.4204,0.1099 0.8164,0.1099 v 0.2245 h -4.4493 v -0.2245 c 0.4051,0 0.68,-0.0374 0.8232,-0.1142 0.1451,-0.0748 0.2463,-0.174 0.3036,-0.2951 0.0592,-0.121 0.0879,-0.4201 0.0879,-0.8977 v -5.6903 c 0,-0.4773 -0.0287,-0.7767 -0.0879,-0.8997 -0.0573,-0.1233 -0.1585,-0.2222 -0.3059,-0.2971 -0.1474,-0.0725 -0.4204,-0.1099 -0.8209,-0.1099 v -0.2246 h 3.8157 c 1.2563,0 2.1586,0.2246 2.7043,0.671 0.5479,0.449 0.8206,1.008 0.8206,1.679 0,0.57 -0.176,1.0562 -0.5304,1.4609 -0.352,0.4051 -0.8382,0.6801 -1.4587,0.8275 -0.4158,0.1034 -1.1222,0.1539 -2.1169,0.1539 z m 0,-4.2905 v 3.789 c 0.1432,0.009 0.2509,0.0131 0.3235,0.0131 0.5261,0 0.9331,-0.1562 1.2169,-0.4686 0.2837,-0.3124 0.4269,-0.7965 0.4269,-1.4522 0,-0.6514 -0.1432,-1.1267 -0.4269,-1.4281 -0.2838,-0.3016 -0.7107,-0.4532 -1.2739,-0.4532 z m 4.8036,-0.5018 h 4.5153 v 0.2246 h -0.2268 c -0.341,0 -0.5743,0.0351 -0.7018,0.1077 -0.1276,0.0703 -0.2177,0.1695 -0.2707,0.2948 -0.055,0.1255 -0.0814,0.4402 -0.0814,0.9439 v 4.282 c 0,0.7832 0.0596,1.3006 0.1761,1.5534 0.1187,0.2554 0.3123,0.4643 0.583,0.6338 0.2708,0.1673 0.614,0.2509 1.0253,0.2509 0.4731,0 0.8759,-0.1057 1.2082,-0.3192 0.3322,-0.2134 0.5808,-0.506 0.746,-0.8801 0.165,-0.3739 0.2486,-1.0253 0.2486,-1.954 v -3.5668 c 0,-0.3937 -0.0419,-0.6778 -0.1233,-0.845 -0.0813,-0.1692 -0.1848,-0.286 -0.3101,-0.3521 -0.1939,-0.0989 -0.4666,-0.1493 -0.8209,-0.1493 v -0.2246 h 3.0234 v 0.2246 h -0.1805 c -0.2441,0 -0.4468,0.0504 -0.6095,0.1493 -0.1627,0.0992 -0.2817,0.2489 -0.3543,0.449 -0.055,0.1387 -0.0836,0.3873 -0.0836,0.7481 v 3.3228 c 0,1.0275 -0.0681,1.7691 -0.2024,2.2243 -0.1364,0.4578 -0.4643,0.8759 -0.9879,1.2589 -0.5258,0.3827 -1.2387,0.5743 -2.1455,0.5743 -0.7569,0 -1.34,-0.1012 -1.7516,-0.3039 -0.5632,-0.2749 -0.9615,-0.627 -1.1925,-1.0582 -0.231,-0.4291 -0.3475,-1.008 -0.3475,-1.7339 v -4.2843 c 0,-0.5082 -0.0287,-0.8229 -0.0836,-0.9462 -0.0573,-0.123 -0.152,-0.2222 -0.2906,-0.2971 -0.1386,-0.0725 -0.3917,-0.1077 -0.7614,-0.1031 z m 15.0905,4.108 c 0.834,0.1936 1.4213,0.4292 1.7581,0.7041 0.4841,0.3918 0.7259,0.9 0.7259,1.5251 0,0.6579 -0.2639,1.2036 -0.7942,1.6347 -0.6492,0.5216 -1.5931,0.7812 -2.8296,0.7812 h -4.445 v -0.2245 c 0.4051,0 0.68,-0.0374 0.8229,-0.1142 0.1454,-0.0748 0.2466,-0.174 0.3039,-0.2951 0.0592,-0.121 0.0879,-0.4201 0.0879,-0.8977 v -5.6903 c 0,-0.4773 -0.0287,-0.7767 -0.0879,-0.8997 -0.0573,-0.1233 -0.1607,-0.2222 -0.3059,-0.2971 -0.1474,-0.0725 -0.4204,-0.1099 -0.8209,-0.1099 v -0.2246 h 4.1942 c 1.0031,0 1.7118,0.0902 2.1299,0.2685 0.4181,0.1783 0.7458,0.4445 0.9879,0.7988 0.2398,0.354 0.3608,0.7325 0.3608,1.131 0,0.4224 -0.1539,0.7965 -0.462,1.1265 -0.3081,0.328 -0.8493,0.5896 -1.626,0.7832 z m -2.3502,-0.1737 c 0.6163,0 1.0718,-0.0684 1.3643,-0.207 0.2926,-0.1363 0.5171,-0.3299 0.6733,-0.5808 0.1562,-0.2486 0.2355,-0.5678 0.2355,-0.955 0,-0.3872 -0.0771,-0.7041 -0.231,-0.9504 -0.1542,-0.2486 -0.3742,-0.4357 -0.6624,-0.5656 -0.2861,-0.1298 -0.7458,-0.1913 -1.3797,-0.187 z m 0,0.5017 v 2.8032 0.3234 c 0,0.2313 0.0573,0.4073 0.1738,0.5238 0.1168,0.1188 0.2883,0.1783 0.5173,0.1783 0.3388,0 0.6491,-0.0771 0.9352,-0.229 0.286,-0.1517 0.5037,-0.3716 0.6556,-0.6622 0.152,-0.2883 0.2288,-0.6117 0.2288,-0.966 0,-0.4071 -0.0859,-0.7722 -0.2551,-1.0959 -0.1718,-0.3234 -0.4227,-0.5522 -0.7572,-0.6843 -0.3342,-0.1318 -0.8339,-0.1959 -1.4984,-0.1913 z m 13.6403,1.2543 -0.3299,3.0628 h -7.7496 v -0.2245 h 0.288 c 0.2531,0 0.4577,-0.0462 0.6117,-0.1363 0.1122,-0.0615 0.1981,-0.165 0.2576,-0.3124 0.0462,-0.1034 0.0703,-0.3764 0.0703,-0.8186 v -5.7694 c 0,-0.4513 -0.0241,-0.7327 -0.0703,-0.845 -0.0484,-0.1122 -0.1431,-0.2112 -0.2863,-0.2948 -0.1428,-0.0859 -0.3364,-0.1275 -0.583,-0.1275 h -0.288 v -0.2246 h 4.6601 v 0.2246 h -0.3827 c -0.2531,0 -0.4578,0.0462 -0.614,0.1363 -0.1122,0.0615 -0.2001,0.165 -0.2661,0.3124 -0.0462,0.1034 -0.0706,0.3761 -0.0706,0.8186 v 5.5846 c 0,0.4467 0.0266,0.7327 0.0771,0.856 0.0507,0.123 0.1519,0.2135 0.3016,0.275 0.1077,0.0374 0.3674,0.0572 0.7767,0.0572 h 0.7259 c 0.4621,0 0.8473,-0.0813 1.1554,-0.2443 0.3079,-0.1627 0.5763,-0.4204 0.8008,-0.7724 0.2245,-0.3521 0.438,-0.8714 0.6381,-1.5577 z m 5.2813,2.8383 v 0.2245 h -4.5547 v -0.2245 h 0.288 c 0.2531,0 0.4578,-0.0462 0.6117,-0.1363 0.1122,-0.0615 0.1981,-0.165 0.2576,-0.3124 0.0463,-0.1034 0.0703,-0.3764 0.0703,-0.8186 v -5.7694 c 0,-0.4513 -0.024,-0.7327 -0.0703,-0.845 -0.0484,-0.1122 -0.1431,-0.2112 -0.2863,-0.2948 -0.1428,-0.0859 -0.3364,-0.1275 -0.583,-0.1275 h -0.288 v -0.2246 h 4.5547 v 0.2246 h -0.2883 c -0.2509,0 -0.4533,0.0462 -0.6072,0.1363 -0.1103,0.0615 -0.1981,0.165 -0.2619,0.3124 -0.0462,0.1034 -0.0706,0.3761 -0.0706,0.8186 v 5.7694 c 0,0.451 0.0244,0.7327 0.0729,0.845 0.0504,0.1122 0.1451,0.2112 0.288,0.2948 0.1431,0.0859 0.3367,0.1275 0.5788,0.1275 z m 5.8175,-5.1709 3.0654,3.8551 c 0.4334,0.5437 0.8073,0.9133 1.1222,1.1092 0.2265,0.1386 0.4686,0.2066 0.7217,0.2066 v 0.2245 h -4.5439 v -0.2245 c 0.2883,-0.0263 0.4731,-0.0725 0.5567,-0.1363 0.0836,-0.066 0.1253,-0.1451 0.1253,-0.2421 0,-0.1825 -0.1956,-0.5258 -0.5919,-1.0298 l -2.0024,-2.5172 -0.3276,0.2639 v 2.3942 c 0,0.4598 0.0263,0.7461 0.0771,0.858 0.0527,0.1123 0.1516,0.2092 0.299,0.2883 0.1474,0.0814 0.383,0.121 0.7064,0.121 v 0.2245 h -4.4096 v -0.2245 h 0.2883 c 0.2532,0 0.4575,-0.0462 0.6117,-0.1363 0.1123,-0.0615 0.1979,-0.165 0.2574,-0.3124 0.0462,-0.1034 0.0703,-0.3764 0.0703,-0.8186 v -5.7694 c 0,-0.4513 -0.0241,-0.7327 -0.0703,-0.845 -0.0484,-0.1122 -0.1431,-0.2112 -0.286,-0.2948 -0.1431,-0.0859 -0.3367,-0.1275 -0.5831,-0.1275 h -0.2883 v -0.2246 h 4.3436 v 0.2246 c -0.2948,0 -0.5216,0.0439 -0.6755,0.1298 -0.1123,0.0615 -0.2002,0.1627 -0.2639,0.3058 -0.0508,0.1078 -0.0771,0.385 -0.0771,0.8317 v 2.7306 l 3.2544,-2.6183 c 0.451,-0.3719 0.6755,-0.6713 0.6755,-0.8935 0,-0.1673 -0.0924,-0.2971 -0.2772,-0.3937 -0.0947,-0.0485 -0.328,-0.0794 -0.7022,-0.0924 v -0.2246 h 3.4042 v 0.2246 c -0.3059,0.0218 -0.5457,0.0768 -0.7195,0.1669 -0.174,0.0882 -0.5743,0.3918 -1.2016,0.9068 z m 10.2498,2.9001 h -3.0608 l -0.3807,0.8538 c -0.1211,0.286 -0.1803,0.5238 -0.1803,0.7107 0,0.2488 0.0989,0.4314 0.2948,0.5502 0.1165,0.0683 0.4025,0.121 0.858,0.1561 v 0.2245 h -2.9066 v -0.2245 c 0.3124,-0.0484 0.572,-0.1802 0.7721,-0.3937 0.2027,-0.2157 0.4536,-0.6602 0.7484,-1.3334 l 3.1243,-6.9732 h 0.1233 l 3.1533,7.1668 c 0.3013,0.6866 0.5479,1.12 0.7415,1.2983 0.1475,0.1363 0.3521,0.2134 0.6206,0.2352 v 0.2245 h -4.2293 v -0.2245 h 0.174 c 0.3387,0 0.5786,-0.0484 0.7149,-0.1451 0.0947,-0.0683 0.1409,-0.1695 0.1409,-0.2993 0,-0.0791 -0.0111,-0.1605 -0.0374,-0.2441 -0.009,-0.0374 -0.0726,-0.2027 -0.1936,-0.4907 z m -0.2069,-0.4751 -1.3048,-2.9817 -1.3357,2.9817 z m 10.4672,-5.9808 0.066,2.9177 h -0.2639 c -0.1255,-0.7305 -0.4314,-1.3181 -0.9198,-1.7626 -0.4907,-0.4444 -1.0188,-0.6667 -1.5866,-0.6667 -0.4399,0 -0.7877,0.1168 -1.0428,0.3521 -0.2574,0.2333 -0.3853,0.504 -0.3853,0.8076 0,0.1936 0.0463,0.3654 0.1367,0.517 0.123,0.2004 0.3234,0.4005 0.6006,0.5987 0.2024,0.1409 0.669,0.3937 1.3995,0.7546 1.0253,0.5017 1.7161,0.9771 2.0727,1.4238 0.3543,0.4467 0.5304,0.957 0.5304,1.5336 0,0.7304 -0.2861,1.3577 -0.8561,1.8836 -0.5698,0.5258 -1.2937,0.79 -2.1716,0.79 -0.2753,0 -0.5372,-0.0286 -0.7813,-0.0836 -0.2466,-0.055 -0.5544,-0.1608 -0.924,-0.3169 -0.207,-0.0859 -0.3765,-0.1276 -0.5106,-0.1276 -0.1122,0 -0.229,0.0439 -0.3543,0.1298 -0.1256,0.0879 -0.2268,0.22 -0.3036,0.3983 h -0.2245 v -3.3007 h 0.2245 c 0.1891,0.9264 0.5545,1.6348 1.0936,2.1212 0.5411,0.4861 1.1223,0.7305 1.747,0.7305 0.4819,0 0.8668,-0.1321 1.1531,-0.3937 0.2861,-0.262 0.4289,-0.5656 0.4289,-0.9156 0,-0.2047 -0.055,-0.4048 -0.165,-0.5984 -0.1099,-0.1936 -0.2749,-0.3762 -0.4994,-0.5522 -0.2245,-0.1741 -0.6205,-0.4006 -1.1883,-0.6801 -0.7965,-0.3894 -1.3686,-0.7239 -1.7161,-0.9989 -0.3455,-0.2752 -0.6117,-0.5831 -0.7988,-0.9221 -0.1871,-0.341 -0.2795,-0.7149 -0.2795,-1.1222 0,-0.6974 0.2551,-1.2915 0.7679,-1.7822 0.5105,-0.4906 1.1551,-0.735 1.9341,-0.735 0.284,0 0.559,0.0332 0.8252,0.1012 0.2023,0.053 0.449,0.1474 0.7392,0.286 0.2906,0.1386 0.493,0.2069 0.6098,0.2069 0.1119,0 0.2001,-0.0328 0.2639,-0.1012 0.0637,-0.0683 0.1255,-0.2332 0.1805,-0.4929 z m 5.9564,8.7267 v 0.2245 h -4.5547 v -0.2245 h 0.288 c 0.2532,0 0.4578,-0.0462 0.6117,-0.1363 0.1123,-0.0615 0.1982,-0.165 0.2577,-0.3124 0.0462,-0.1034 0.0703,-0.3764 0.0703,-0.8186 v -5.7694 c 0,-0.4513 -0.0241,-0.7327 -0.0703,-0.845 -0.0485,-0.1122 -0.1431,-0.2112 -0.2863,-0.2948 -0.1429,-0.0859 -0.3365,-0.1275 -0.5831,-0.1275 h -0.288 v -0.2246 h 4.5547 v 0.2246 h -0.2882 c -0.2509,0 -0.4533,0.0462 -0.6072,0.1363 -0.1103,0.0615 -0.1982,0.165 -0.262,0.3124 -0.0462,0.1034 -0.0705,0.3761 -0.0705,0.8186 v 5.7694 c 0,0.451 0.0243,0.7327 0.0728,0.845 0.0505,0.1122 0.1452,0.2112 0.288,0.2948 0.1432,0.0859 0.3368,0.1275 0.5789,0.1275 z m -81.8144,-23.3484 v 0.2773 c -0.4422,0.2661 -0.7412,0.515 -0.8997,0.7438 -0.1168,0.1672 -0.176,0.3673 -0.176,0.5941 0,0.1386 0.0264,0.2398 0.0768,0.3059 0.0485,0.0638 0.1035,0.0966 0.1695,0.0966 0.042,0 0.1035,-0.0153 0.1806,-0.0462 0.1165,-0.0374 0.2112,-0.0569 0.286,-0.0569 0.1715,0 0.3257,0.0637 0.4598,0.1936 0.1343,0.1275 0.2001,0.2882 0.2001,0.4796 0,0.22 -0.0658,0.3895 -0.2001,0.5082 -0.1848,0.1627 -0.4005,0.2444 -0.6446,0.2444 -0.2928,0 -0.5525,-0.1233 -0.7812,-0.3677 -0.2268,-0.244 -0.341,-0.5479 -0.341,-0.9088 0,-0.5082 0.189,-0.9703 0.5674,-1.3861 0.2532,-0.275 0.6208,-0.5017 1.1024,-0.6778 z" style="fill:#ffffff;fill-rule:evenodd" id="path135"/>
    <g id="Layer1002">
      <path d="m 240.5925,335.8641 c 0.7198,-0.0261 1.3054,0.1831 1.7558,0.629 0.4502,0.4468 0.6752,1.0041 0.6752,1.6747 0,0.5721 -0.1681,1.0758 -0.5037,1.5112 -0.4445,0.5766 -1.0721,0.8654 -1.8839,0.8654 -0.8141,0 -1.4431,-0.2752 -1.8876,-0.8254 -0.3515,-0.4357 -0.5275,-0.9508 -0.5275,-1.5478 0,-0.6706 0.2285,-1.2291 0.6854,-1.6758 0.4572,-0.4482 1.0191,-0.6574 1.6863,-0.6313 z m 0.04,0.2115 c -0.4153,0 -0.7302,0.2106 -0.9473,0.6324 -0.1763,0.3455 -0.2637,0.8425 -0.2637,1.4907 0,0.7696 0.1364,1.3394 0.4082,1.7079 0.19,0.2568 0.4547,0.3855 0.796,0.3855 0.2296,0 0.4218,-0.0558 0.5752,-0.1661 0.1955,-0.1423 0.3492,-0.3696 0.4583,-0.6811 0.1091,-0.3116 0.1636,-0.7186 0.1636,-1.2189 0,-0.597 -0.0556,-1.0438 -0.167,-1.3394 -0.1114,-0.2968 -0.2537,-0.506 -0.4263,-0.6279 -0.1729,-0.1216 -0.3719,-0.1831 -0.597,-0.1831 z m 4.2798,-0.2591 v 0.1432 c -0.2557,0.1114 -0.4411,0.2559 -0.5559,0.4334 -0.116,0.1771 -0.1741,0.358 -0.1741,0.5434 0,0.0374 0.008,0.0649 0.0227,0.083 0.0159,0.0193 0.0309,0.0295 0.0468,0.0295 0.0136,0 0.0329,-0.008 0.0601,-0.0227 0.0638,-0.0374 0.1434,-0.0569 0.2389,-0.0569 0.1307,0 0.2432,0.0513 0.3399,0.1536 0.0967,0.1012 0.1446,0.2217 0.1446,0.358 0,0.1468 -0.0559,0.2753 -0.1661,0.3867 -0.1114,0.1102 -0.2455,0.1661 -0.4037,0.1661 -0.191,0 -0.3538,-0.074 -0.489,-0.2217 -0.1352,-0.148 -0.2035,-0.3504 -0.2035,-0.6072 0,-0.3172 0.0955,-0.5992 0.2877,-0.8461 0.1911,-0.2455 0.4754,-0.4275 0.8516,-0.5423 z m 3.8344,0 0.034,1.5078 h -0.1364 c -0.0649,-0.3776 -0.2228,-0.6812 -0.4753,-0.9108 -0.2534,-0.2296 -0.5264,-0.3447 -0.8198,-0.3447 -0.2273,0 -0.4071,0.0604 -0.5389,0.182 -0.1332,0.1204 -0.199,0.2605 -0.199,0.4172 0,0.1001 0.0238,0.1888 0.0703,0.2673 0.0638,0.1035 0.1673,0.207 0.3104,0.3093 0.1049,0.0728 0.3459,0.2035 0.7234,0.39 0.5298,0.2594 0.887,0.5049 1.071,0.7356 0.1831,0.2311 0.2741,0.4947 0.2741,0.7926 0,0.3776 -0.1477,0.7016 -0.4422,0.9734 -0.2946,0.2719 -0.6687,0.4082 -1.1226,0.4082 -0.142,0 -0.2772,-0.0147 -0.4036,-0.0431 -0.1273,-0.0286 -0.2863,-0.083 -0.4774,-0.1638 -0.1068,-0.0442 -0.1944,-0.0661 -0.2639,-0.0661 -0.0578,0 -0.1182,0.023 -0.1831,0.0672 -0.0646,0.0454 -0.1171,0.1137 -0.1567,0.2058 h -0.116 v -1.7056 h 0.116 c 0.0978,0.4788 0.2865,0.8447 0.5649,1.0962 0.2798,0.2511 0.58,0.3775 0.9028,0.3775 0.2492,0 0.4482,-0.0683 0.5959,-0.2035 0.148,-0.1355 0.2217,-0.2922 0.2217,-0.4731 0,-0.1057 -0.0284,-0.2092 -0.0851,-0.3093 -0.057,-0.1 -0.1423,-0.1944 -0.2582,-0.2854 -0.116,-0.0899 -0.3206,-0.2069 -0.614,-0.3512 -0.4116,-0.2013 -0.7073,-0.3742 -0.887,-0.5165 -0.1786,-0.142 -0.316,-0.3013 -0.4127,-0.4762 -0.0967,-0.1763 -0.1443,-0.3696 -0.1443,-0.58 0,-0.3605 0.1318,-0.6675 0.3966,-0.921 0.2639,-0.2537 0.597,-0.3798 0.9995,-0.3798 0.1468,0 0.2888,0.017 0.4266,0.0522 0.1046,0.0275 0.2319,0.0762 0.3821,0.1479 0.15,0.0717 0.2546,0.1069 0.3149,0.1069 0.0579,0 0.1035,-0.017 0.1364,-0.0524 0.0329,-0.0352 0.0649,-0.1205 0.0932,-0.2546 z m 3.0781,4.5096 v 0.116 h -2.3539 v -0.116 h 0.1491 c 0.1307,0 0.2364,-0.0238 0.3161,-0.0705 0.0581,-0.0318 0.1023,-0.0854 0.1329,-0.1613 0.0241,-0.0536 0.0366,-0.1945 0.0366,-0.4232 v -2.9812 c 0,-0.2333 -0.0125,-0.3788 -0.0366,-0.4369 -0.0249,-0.0578 -0.0737,-0.1091 -0.1476,-0.1522 -0.074,-0.0445 -0.1741,-0.066 -0.3014,-0.066 h -0.1491 v -0.116 h 2.3539 v 0.116 h -0.1491 c -0.1295,0 -0.2341,0.0238 -0.3138,0.0706 -0.0567,0.0317 -0.1023,0.0853 -0.1352,0.1612 -0.0238,0.0536 -0.0366,0.1945 -0.0366,0.4233 v 2.9812 c 0,0.2332 0.0128,0.3787 0.0377,0.4368 0.0261,0.0578 0.0752,0.1091 0.1489,0.1522 0.0739,0.0445 0.174,0.066 0.299,0.066 z m 3.4178,-1.4247 1.235,-2.9826 h 1.8295 v 0.116 h -0.1466 c -0.1321,0 -0.2389,0.0238 -0.3186,0.0717 -0.0555,0.0317 -0.1,0.0842 -0.1329,0.159 -0.0238,0.0547 -0.0363,0.1956 -0.0363,0.4244 v 2.9812 c 0,0.2332 0.0125,0.3787 0.0363,0.4368 0.0249,0.0578 0.074,0.1091 0.1502,0.1522 0.0748,0.0445 0.1749,0.066 0.3013,0.066 h 0.1466 v 0.116 h -2.3536 v -0.116 H 256.1 c 0.1318,0 0.2387,-0.0238 0.3184,-0.0705 0.0558,-0.0318 0.1,-0.0854 0.1329,-0.1613 0.0241,-0.0536 0.0366,-0.1945 0.0366,-0.4232 v -3.3475 l -1.7374,4.1185 h -0.0796 l -1.7615,-4.089 v 3.1816 c 0,0.2239 0.006,0.3617 0.017,0.4127 0.0298,0.1114 0.0922,0.2024 0.1888,0.273 0.0967,0.0703 0.2492,0.1057 0.4561,0.1057 v 0.116 h -1.5488 v -0.116 h 0.0479 c 0.1,0.002 0.1933,-0.0136 0.2797,-0.049 0.0873,-0.0351 0.1523,-0.0816 0.1968,-0.1397 0.0453,-0.0582 0.0793,-0.1398 0.1034,-0.2455 0.005,-0.0253 0.007,-0.1389 0.007,-0.3436 v -2.8584 c 0,-0.2333 -0.0113,-0.3788 -0.0365,-0.4357 -0.0238,-0.0579 -0.0737,-0.1092 -0.15,-0.1534 -0.0762,-0.0445 -0.1774,-0.066 -0.3036,-0.066 h -0.1445 v -0.116 h 1.8445 z m 7.4979,-0.0422 -0.1707,1.5829 h -4.0048 v -0.116 h 0.1491 c 0.1307,0 0.2365,-0.0238 0.3161,-0.0705 0.0581,-0.0318 0.1023,-0.0854 0.1329,-0.1613 0.0241,-0.0536 0.0366,-0.1945 0.0366,-0.4232 v -2.9812 c 0,-0.2333 -0.0125,-0.3788 -0.0366,-0.4369 -0.0249,-0.0578 -0.0737,-0.1091 -0.1476,-0.1522 -0.074,-0.0445 -0.1741,-0.066 -0.3014,-0.066 h -0.1491 v -0.116 h 2.4084 v 0.116 h -0.1979 c -0.1307,0 -0.2364,0.0238 -0.3172,0.0706 -0.0578,0.0317 -0.1035,0.0853 -0.1375,0.1612 -0.0238,0.0536 -0.0365,0.1945 -0.0365,0.4233 v 2.8856 c 0,0.2311 0.0138,0.3787 0.0399,0.4425 0.0261,0.0635 0.0785,0.1103 0.1556,0.142 0.0559,0.0193 0.19,0.0295 0.4014,0.0295 h 0.3753 c 0.239,0 0.438,-0.0419 0.597,-0.1261 0.1593,-0.0842 0.2979,-0.2172 0.4139,-0.3991 0.1159,-0.182 0.2265,-0.4502 0.3299,-0.8051 z m 2.7289,1.4669 v 0.116 h -2.3539 v -0.116 h 0.1491 c 0.1307,0 0.2364,-0.0238 0.3161,-0.0705 0.0581,-0.0318 0.1023,-0.0854 0.1329,-0.1613 0.0241,-0.0536 0.0366,-0.1945 0.0366,-0.4232 v -2.9812 c 0,-0.2333 -0.0125,-0.3788 -0.0366,-0.4369 -0.0249,-0.0578 -0.0737,-0.1091 -0.1477,-0.1522 -0.074,-0.0445 -0.174,-0.066 -0.3013,-0.066 h -0.1491 v -0.116 h 2.3539 v 0.116 h -0.1491 c -0.1296,0 -0.2342,0.0238 -0.3138,0.0706 -0.0567,0.0317 -0.1023,0.0853 -0.1352,0.1612 -0.0238,0.0536 -0.0366,0.1945 -0.0366,0.4233 v 2.9812 c 0,0.2332 0.0128,0.3787 0.0377,0.4368 0.0261,0.0578 0.0751,0.1091 0.1488,0.1522 0.074,0.0445 0.1741,0.066 0.2991,0.066 z m 3.0061,-2.6722 1.584,1.9922 c 0.224,0.2809 0.4173,0.472 0.58,0.5732 0.1171,0.0714 0.2421,0.1068 0.373,0.1068 v 0.116 h -2.3482 v -0.116 c 0.1491,-0.0136 0.2446,-0.0377 0.2877,-0.0705 0.0434,-0.0341 0.0649,-0.0752 0.0649,-0.125 0,-0.0944 -0.1012,-0.2719 -0.3058,-0.5321 l -1.0349,-1.3008 -0.1693,0.1363 v 1.2371 c 0,0.2378 0.0136,0.3855 0.0397,0.4436 0.0272,0.0578 0.0785,0.108 0.1548,0.1488 0.076,0.0422 0.1978,0.0626 0.3648,0.0626 v 0.116 h -2.2785 v -0.116 h 0.1488 c 0.1307,0 0.2364,-0.0238 0.3161,-0.0705 0.0581,-0.0318 0.1023,-0.0854 0.1329,-0.1613 0.0241,-0.0536 0.0366,-0.1945 0.0366,-0.4232 v -2.9812 c 0,-0.2333 -0.0125,-0.3788 -0.0366,-0.4369 -0.0249,-0.0578 -0.0737,-0.1091 -0.1476,-0.1522 -0.074,-0.0445 -0.1741,-0.066 -0.3014,-0.066 h -0.1488 v -0.116 h 2.2445 v 0.116 c -0.1525,0 -0.2696,0.0226 -0.3492,0.0672 -0.0579,0.0317 -0.1035,0.0841 -0.1364,0.1578 -0.0261,0.0559 -0.0397,0.199 -0.0397,0.4301 v 1.411 l 1.6815,-1.3532 c 0.2333,-0.1922 0.3493,-0.3467 0.3493,-0.4615 0,-0.0865 -0.0479,-0.1536 -0.1435,-0.2035 -0.0487,-0.0253 -0.1692,-0.0411 -0.3625,-0.0479 v -0.116 h 1.7589 v 0.116 c -0.1579,0.0113 -0.2818,0.0397 -0.3716,0.0864 -0.0899,0.0454 -0.2968,0.2024 -0.6208,0.4686 z m 6.7771,1.2053 -0.1706,1.5829 h -4.0048 v -0.116 h 0.1491 c 0.1306,0 0.2364,-0.0238 0.316,-0.0705 0.0581,-0.0318 0.1024,-0.0854 0.133,-0.1613 0.0241,-0.0536 0.0365,-0.1945 0.0365,-0.4232 v -2.9812 c 0,-0.2333 -0.0124,-0.3788 -0.0365,-0.4369 -0.025,-0.0578 -0.0737,-0.1091 -0.1477,-0.1522 -0.074,-0.0445 -0.1741,-0.066 -0.3013,-0.066 h -0.1491 v -0.116 h 2.4083 v 0.116 h -0.1979 c -0.1307,0 -0.2364,0.0238 -0.3172,0.0706 -0.0578,0.0317 -0.1034,0.0853 -0.1375,0.1612 -0.0238,0.0536 -0.0365,0.1945 -0.0365,0.4233 v 2.8856 c 0,0.2311 0.0139,0.3787 0.0399,0.4425 0.0261,0.0635 0.0786,0.1103 0.1557,0.142 0.0558,0.0193 0.1899,0.0295 0.4014,0.0295 h 0.3753 c 0.2389,0 0.4379,-0.0419 0.5969,-0.1261 0.1593,-0.0842 0.298,-0.2172 0.4139,-0.3991 0.1159,-0.182 0.2265,-0.4502 0.3299,-0.8051 z m 3.0699,0.2934 h -1.5817 l -0.1967,0.4414 c -0.0624,0.1476 -0.093,0.2704 -0.093,0.367 0,0.1284 0.051,0.2228 0.1522,0.2844 0.0604,0.0351 0.2081,0.0626 0.4436,0.0807 v 0.116 h -1.502 v -0.116 c 0.1612,-0.0249 0.2953,-0.0932 0.3991,-0.2035 0.1046,-0.1114 0.2341,-0.3413 0.3863,-0.6891 l 1.6146,-3.6034 h 0.0638 l 1.6294,3.7035 c 0.1559,0.3546 0.2832,0.5788 0.3832,0.6709 0.0763,0.0703 0.182,0.1103 0.3206,0.1216 v 0.116 h -2.1852 v -0.116 h 0.0896 c 0.1751,0 0.299,-0.0249 0.3696,-0.0751 0.049,-0.0351 0.0729,-0.0876 0.0729,-0.1545 0,-0.0411 -0.006,-0.083 -0.0193,-0.1264 -0.005,-0.0193 -0.0377,-0.1046 -0.1001,-0.2534 z m -0.1068,-0.2455 -0.6744,-1.5409 -0.69,1.5409 z m 4.0172,-0.5255 v 1.2758 c 0,0.2435 0.0148,0.398 0.0457,0.4607 0.0294,0.0635 0.0827,0.1136 0.1578,0.1511 0.0763,0.0377 0.2172,0.0569 0.4241,0.0569 v 0.116 h -2.3128 v -0.116 c 0.2092,0 0.3515,-0.0192 0.4255,-0.0581 0.0748,-0.0385 0.1273,-0.0898 0.1568,-0.1511 0.0306,-0.0626 0.0456,-0.216 0.0456,-0.4595 v -2.9539 c 0,-0.2447 -0.015,-0.398 -0.0456,-0.4607 -0.0295,-0.0635 -0.0831,-0.1136 -0.1579,-0.1511 -0.0763,-0.0377 -0.2175,-0.0569 -0.4244,-0.0569 v -0.116 h 2.1013 c 0.5471,0 0.9462,0.0375 1.1997,0.1137 0.2537,0.0751 0.4606,0.2149 0.6207,0.4195 0.1605,0.2036 0.2401,0.4425 0.2401,0.7163 0,0.3334 -0.1204,0.6095 -0.3605,0.828 -0.1534,0.1387 -0.3682,0.2421 -0.6446,0.3104 l 1.0837,1.5316 c 0.1431,0.1967 0.2454,0.3195 0.3058,0.3685 0.091,0.068 0.1979,0.1057 0.3184,0.1125 v 0.1228 h -1.4236 l -1.459,-2.0605 z m 0,-2.2105 v 1.9718 h 0.1899 c 0.3093,0 0.5412,-0.0283 0.6948,-0.0842 0.1534,-0.0567 0.2741,-0.159 0.3617,-0.3058 0.0873,-0.1466 0.1318,-0.3388 0.1318,-0.5755 0,-0.3433 -0.0808,-0.5967 -0.2423,-0.7605 -0.1613,-0.1639 -0.4207,-0.2458 -0.7787,-0.2458 z m 7.6592,1.4828 1.584,1.9922 c 0.224,0.2809 0.4173,0.472 0.58,0.5732 0.1171,0.0714 0.2421,0.1068 0.373,0.1068 v 0.116 h -2.3482 v -0.116 c 0.1491,-0.0136 0.2446,-0.0377 0.2877,-0.0705 0.0434,-0.0341 0.0649,-0.0752 0.0649,-0.125 0,-0.0944 -0.1012,-0.2719 -0.3058,-0.5321 l -1.0349,-1.3008 -0.1693,0.1363 v 1.2371 c 0,0.2378 0.0136,0.3855 0.0397,0.4436 0.0272,0.0578 0.0785,0.108 0.1548,0.1488 0.076,0.0422 0.1978,0.0626 0.3648,0.0626 v 0.116 h -2.2785 v -0.116 h 0.1488 c 0.1307,0 0.2364,-0.0238 0.3161,-0.0705 0.0581,-0.0318 0.1023,-0.0854 0.1329,-0.1613 0.0241,-0.0536 0.0366,-0.1945 0.0366,-0.4232 v -2.9812 c 0,-0.2333 -0.0125,-0.3788 -0.0366,-0.4369 -0.0249,-0.0578 -0.0737,-0.1091 -0.1476,-0.1522 -0.074,-0.0445 -0.1741,-0.066 -0.3014,-0.066 h -0.1488 v -0.116 h 2.2445 v 0.116 c -0.1525,0 -0.2696,0.0226 -0.3492,0.0672 -0.0579,0.0317 -0.1035,0.0841 -0.1364,0.1578 -0.0261,0.0559 -0.0397,0.199 -0.0397,0.4301 v 1.411 l 1.6815,-1.3532 c 0.2333,-0.1922 0.3493,-0.3467 0.3493,-0.4615 0,-0.0865 -0.0479,-0.1536 -0.1435,-0.2035 -0.0487,-0.0253 -0.1692,-0.0411 -0.3625,-0.0479 v -0.116 h 1.7589 v 0.116 c -0.1579,0.0113 -0.2818,0.0397 -0.3716,0.0864 -0.0899,0.0454 -0.2968,0.2024 -0.6208,0.4686 z m 5.2966,1.4987 h -1.5818 l -0.1967,0.4414 c -0.0624,0.1476 -0.093,0.2704 -0.093,0.367 0,0.1284 0.0511,0.2228 0.1522,0.2844 0.0604,0.0351 0.2081,0.0626 0.4437,0.0807 v 0.116 h -1.5021 v -0.116 c 0.1613,-0.0249 0.2954,-0.0932 0.3991,-0.2035 0.1046,-0.1114 0.2342,-0.3413 0.3864,-0.6891 l 1.6146,-3.6034 h 0.0638 l 1.6293,3.7035 c 0.1559,0.3546 0.2832,0.5788 0.3833,0.6709 0.0762,0.0703 0.1819,0.1103 0.3206,0.1216 v 0.116 h -2.1853 v -0.116 h 0.0896 c 0.1752,0 0.2991,-0.0249 0.3696,-0.0751 0.0491,-0.0351 0.0729,-0.0876 0.0729,-0.1545 0,-0.0411 -0.006,-0.083 -0.0193,-0.1264 -0.005,-0.0193 -0.0377,-0.1046 -0.1,-0.2534 z m -0.1069,-0.2455 -0.6744,-1.5409 -0.6899,1.5409 z m 4.0173,-0.5255 v 1.2758 c 0,0.2435 0.0147,0.398 0.0456,0.4607 0.0295,0.0635 0.0828,0.1136 0.1579,0.1511 0.0762,0.0377 0.2171,0.0569 0.424,0.0569 v 0.116 h -2.3127 v -0.116 c 0.2092,0 0.3515,-0.0192 0.4254,-0.0581 0.0749,-0.0385 0.1273,-0.0898 0.1568,-0.1511 0.0306,-0.0626 0.0456,-0.216 0.0456,-0.4595 v -2.9539 c 0,-0.2447 -0.015,-0.398 -0.0456,-0.4607 -0.0295,-0.0635 -0.0831,-0.1136 -0.1579,-0.1511 -0.0762,-0.0377 -0.2174,-0.0569 -0.4243,-0.0569 v -0.116 h 2.1013 c 0.5471,0 0.9462,0.0375 1.1996,0.1137 0.2537,0.0751 0.4606,0.2149 0.6208,0.4195 0.1604,0.2036 0.2401,0.4425 0.2401,0.7163 0,0.3334 -0.1205,0.6095 -0.3606,0.828 -0.1533,0.1387 -0.3682,0.2421 -0.6446,0.3104 l 1.0837,1.5316 c 0.1432,0.1967 0.2455,0.3195 0.3059,0.3685 0.091,0.068 0.1978,0.1057 0.3183,0.1125 v 0.1228 h -1.4236 l -1.459,-2.0605 z m 0,-2.2105 v 1.9718 h 0.1899 c 0.3092,0 0.5411,-0.0283 0.6947,-0.0842 0.1534,-0.0567 0.2742,-0.159 0.3617,-0.3058 0.0874,-0.1466 0.1319,-0.3388 0.1319,-0.5755 0,-0.3433 -0.0808,-0.5967 -0.2424,-0.7605 -0.1613,-0.1639 -0.4207,-0.2458 -0.7787,-0.2458 z m 5.9434,2.9815 h -1.5818 l -0.1967,0.4414 c -0.0624,0.1476 -0.093,0.2704 -0.093,0.367 0,0.1284 0.051,0.2228 0.1522,0.2844 0.0604,0.0351 0.2081,0.0626 0.4437,0.0807 v 0.116 h -1.5021 v -0.116 c 0.1613,-0.0249 0.2954,-0.0932 0.3991,-0.2035 0.1046,-0.1114 0.2341,-0.3413 0.3864,-0.6891 l 1.6146,-3.6034 h 0.0638 l 1.6293,3.7035 c 0.1559,0.3546 0.2832,0.5788 0.3833,0.6709 0.0762,0.0703 0.1819,0.1103 0.3206,0.1216 v 0.116 h -2.1853 v -0.116 h 0.0896 c 0.1752,0 0.2991,-0.0249 0.3696,-0.0751 0.0491,-0.0351 0.0729,-0.0876 0.0729,-0.1545 0,-0.0411 -0.006,-0.083 -0.0193,-0.1264 -0.005,-0.0193 -0.0377,-0.1046 -0.1,-0.2534 z m -0.1069,-0.2455 -0.6744,-1.5409 -0.6899,1.5409 z m 3.8979,-2.9883 2.2275,2.8018 v -1.9423 c 0,-0.2738 -0.0386,-0.4581 -0.1171,-0.5547 -0.1069,-0.1307 -0.2866,-0.1934 -0.5377,-0.1888 v -0.116 H 311.9 v 0.116 c -0.1907,0.0249 -0.3194,0.0569 -0.3852,0.0955 -0.0649,0.0397 -0.1162,0.1035 -0.1536,0.1922 -0.0363,0.0887 -0.0545,0.2409 -0.0545,0.4558 v 3.7661 h -0.1128 l -3.0529,-3.7706 v 2.8836 c 0,0.2617 0.0593,0.4391 0.1786,0.531 0.1193,0.0921 0.2568,0.1377 0.4104,0.1377 h 0.1069 v 0.116 h -1.6101 v -0.116 c 0.2501,-0.002 0.423,-0.0535 0.5219,-0.1547 0.0978,-0.1012 0.1468,-0.2716 0.1468,-0.514 v -3.1986 l -0.0944,-0.117 c -0.0955,-0.1228 -0.1797,-0.2036 -0.2537,-0.2421 -0.0728,-0.0388 -0.1785,-0.0604 -0.316,-0.0649 v -0.116 z m 7.5365,0 v 1.2212 h -0.116 c -0.0717,-0.282 -0.1502,-0.4844 -0.2366,-0.6072 -0.0862,-0.1239 -0.2058,-0.2217 -0.3569,-0.2945 -0.0842,-0.0397 -0.2319,-0.0601 -0.4436,-0.0601 h -0.3411 v 3.4929 c 0,0.2332 0.0125,0.3787 0.0375,0.4368 0.0252,0.0578 0.0751,0.1091 0.1479,0.1522 0.074,0.0445 0.1741,0.066 0.3014,0.066 h 0.1476 v 0.116 h -2.3536 v -0.116 h 0.1488 c 0.1299,0 0.2345,-0.0238 0.3138,-0.0705 0.057,-0.0318 0.1027,-0.0854 0.1355,-0.1613 0.0239,-0.0536 0.0363,-0.1945 0.0363,-0.4232 v -3.4929 h -0.3274 c -0.3024,0 -0.5218,0.0646 -0.6596,0.193 -0.1922,0.1798 -0.3127,0.4357 -0.3637,0.7688 h -0.1298 v -1.2212 z m 2.7357,4.4073 v 0.116 h -2.3539 v -0.116 h 0.1491 c 0.1307,0 0.2364,-0.0238 0.3161,-0.0705 0.0581,-0.0318 0.1023,-0.0854 0.1329,-0.1613 0.0241,-0.0536 0.0366,-0.1945 0.0366,-0.4232 v -2.9812 c 0,-0.2333 -0.0125,-0.3788 -0.0366,-0.4369 -0.0249,-0.0578 -0.0737,-0.1091 -0.1477,-0.1522 -0.0739,-0.0445 -0.174,-0.066 -0.3013,-0.066 h -0.1491 v -0.116 h 2.3539 v 0.116 h -0.1491 c -0.1295,0 -0.2341,0.0238 -0.3138,0.0706 -0.0567,0.0317 -0.1023,0.0853 -0.1352,0.1612 -0.0238,0.0536 -0.0366,0.1945 -0.0366,0.4233 v 2.9812 c 0,0.2332 0.0128,0.3787 0.0377,0.4368 0.0261,0.0578 0.0751,0.1091 0.1488,0.1522 0.074,0.0445 0.1741,0.066 0.2991,0.066 z m 1.8601,-4.4073 2.2275,2.8018 v -1.9423 c 0,-0.2738 -0.0386,-0.4581 -0.1171,-0.5547 -0.1069,-0.1307 -0.2866,-0.1934 -0.5377,-0.1888 v -0.116 h 1.4938 v 0.116 c -0.1908,0.0249 -0.3194,0.0569 -0.3852,0.0955 -0.0649,0.0397 -0.1162,0.1035 -0.1537,0.1922 -0.0362,0.0887 -0.0544,0.2409 -0.0544,0.4558 v 3.7661 h -0.1128 l -3.0529,-3.7706 v 2.8836 c 0,0.2617 0.0592,0.4391 0.1786,0.531 0.1193,0.0921 0.2568,0.1377 0.4104,0.1377 h 0.1069 v 0.116 h -1.6101 v -0.116 c 0.25,-0.002 0.4229,-0.0535 0.5219,-0.1547 0.0978,-0.1012 0.1468,-0.2716 0.1468,-0.514 v -3.1986 l -0.0944,-0.117 c -0.0955,-0.1228 -0.1797,-0.2036 -0.2537,-0.2421 -0.0728,-0.0388 -0.1786,-0.0604 -0.316,-0.0649 v -0.116 z m 5.7217,4.4073 v 0.116 h -2.3539 v -0.116 h 0.1491 c 0.1307,0 0.2364,-0.0238 0.3161,-0.0705 0.0581,-0.0318 0.1023,-0.0854 0.1329,-0.1613 0.0241,-0.0536 0.0366,-0.1945 0.0366,-0.4232 v -2.9812 c 0,-0.2333 -0.0125,-0.3788 -0.0366,-0.4369 -0.0249,-0.0578 -0.0737,-0.1091 -0.1476,-0.1522 -0.074,-0.0445 -0.1741,-0.066 -0.3014,-0.066 h -0.1491 v -0.116 h 2.3539 v 0.116 h -0.1491 c -0.1295,0 -0.2341,0.0238 -0.3138,0.0706 -0.0567,0.0317 -0.1023,0.0853 -0.1352,0.1612 -0.0238,0.0536 -0.0365,0.1945 -0.0365,0.4233 v 2.9812 c 0,0.2332 0.0127,0.3787 0.0377,0.4368 0.026,0.0578 0.0751,0.1091 0.1488,0.1522 0.074,0.0445 0.174,0.066 0.299,0.066 z m 6.6016,-4.4073 v 0.116 c -0.1635,0.0272 -0.3104,0.1148 -0.4388,0.265 -0.0932,0.1114 -0.2318,0.3739 -0.4172,0.788 l -1.5489,3.4566 h -0.1102 l -1.5418,-3.5989 c -0.1865,-0.4354 -0.3115,-0.6913 -0.3742,-0.7662 -0.0635,-0.0762 -0.1831,-0.1241 -0.358,-0.1445 v -0.116 h 2.1557 v 0.116 h -0.0728 c -0.1956,0 -0.3297,0.0249 -0.4003,0.0751 -0.051,0.0329 -0.0759,0.083 -0.0759,0.1488 0,0.0411 0.008,0.0887 0.0261,0.1446 0.0181,0.0544 0.0785,0.2024 0.1808,0.4433 l 0.9629,2.247 0.8881,-2.0001 c 0.108,-0.2458 0.1752,-0.4093 0.199,-0.4924 0.025,-0.083 0.0377,-0.1536 0.0377,-0.2126 0,-0.0671 -0.0184,-0.1264 -0.0536,-0.1785 -0.0362,-0.0514 -0.0875,-0.091 -0.157,-0.1183 -0.0955,-0.0377 -0.2217,-0.0569 -0.3796,-0.0569 v -0.116 z m 2.0251,3.2338 h -1.5817 l -0.1968,0.4414 c -0.0623,0.1476 -0.0929,0.2704 -0.0929,0.367 0,0.1284 0.051,0.2228 0.1522,0.2844 0.0604,0.0351 0.2081,0.0626 0.4436,0.0807 v 0.116 h -1.5021 v -0.116 c 0.1613,-0.0249 0.2954,-0.0932 0.3992,-0.2035 0.1046,-0.1114 0.2341,-0.3413 0.3863,-0.6891 l 1.6146,-3.6034 h 0.0638 l 1.6294,3.7035 c 0.1559,0.3546 0.2831,0.5788 0.3832,0.6709 0.0763,0.0703 0.182,0.1103 0.3206,0.1216 v 0.116 h -2.1852 v -0.116 h 0.0896 c 0.1751,0 0.299,-0.0249 0.3696,-0.0751 0.049,-0.0351 0.0728,-0.0876 0.0728,-0.1545 0,-0.0411 -0.006,-0.083 -0.0192,-0.1264 -0.005,-0.0193 -0.0377,-0.1046 -0.1001,-0.2534 z m -0.1069,-0.2455 -0.6743,-1.5409 -0.69,1.5409 z m 5.3944,-0.6415 v 1.4055 c 0,0.2332 0.0124,0.3787 0.0374,0.4368 0.0261,0.0578 0.0751,0.1091 0.1488,0.1522 0.074,0.0445 0.1741,0.066 0.2991,0.066 h 0.1491 v 0.116 h -2.3539 v -0.116 h 0.1491 c 0.1307,0 0.2364,-0.0238 0.316,-0.0705 0.0581,-0.0318 0.1024,-0.0854 0.133,-0.1613 0.0241,-0.0536 0.0366,-0.1945 0.0366,-0.4232 v -2.9812 c 0,-0.2333 -0.0125,-0.3788 -0.0366,-0.4369 -0.025,-0.0578 -0.0737,-0.1091 -0.1477,-0.1522 -0.074,-0.0445 -0.174,-0.066 -0.3013,-0.066 h -0.1491 v -0.116 h 2.3539 v 0.116 h -0.1491 c -0.1296,0 -0.2342,0.0238 -0.3138,0.0706 -0.0567,0.0317 -0.1024,0.0853 -0.1352,0.1612 -0.0239,0.0536 -0.0363,0.1945 -0.0363,0.4233 v 1.2824 h 1.6032 v -1.2824 c 0,-0.2333 -0.0127,-0.3788 -0.0365,-0.4369 -0.025,-0.0578 -0.074,-0.1091 -0.15,-0.1522 -0.0751,-0.0445 -0.1752,-0.066 -0.3013,-0.066 h -0.1468 v -0.116 h 2.3539 v 0.116 h -0.1469 c -0.1318,0 -0.2375,0.0238 -0.3149,0.0706 -0.0578,0.0317 -0.1035,0.0853 -0.1364,0.1612 -0.024,0.0536 -0.0365,0.1945 -0.0365,0.4233 v 2.9812 c 0,0.2332 0.0125,0.3787 0.0365,0.4368 0.025,0.0578 0.0737,0.1091 0.15,0.1522 0.0751,0.0445 0.1752,0.066 0.3013,0.066 h 0.1469 v 0.116 h -2.3539 v -0.116 h 0.1468 c 0.1318,0 0.2375,-0.0238 0.3149,-0.0705 0.0579,-0.0318 0.1035,-0.0854 0.1364,-0.1613 0.0238,-0.0536 0.0365,-0.1945 0.0365,-0.4232 v -1.4055 z m 5.9343,2.0605 v 0.116 h -2.3539 v -0.116 h 0.1491 c 0.1307,0 0.2364,-0.0238 0.3161,-0.0705 0.0581,-0.0318 0.1023,-0.0854 0.1329,-0.1613 0.0241,-0.0536 0.0366,-0.1945 0.0366,-0.4232 v -2.9812 c 0,-0.2333 -0.0125,-0.3788 -0.0366,-0.4369 -0.0249,-0.0578 -0.0737,-0.1091 -0.1477,-0.1522 -0.0739,-0.0445 -0.174,-0.066 -0.3013,-0.066 h -0.1491 v -0.116 h 2.3539 v 0.116 h -0.1491 c -0.1295,0 -0.2341,0.0238 -0.3138,0.0706 -0.0567,0.0317 -0.1023,0.0853 -0.1352,0.1612 -0.0238,0.0536 -0.0366,0.1945 -0.0366,0.4233 v 2.9812 c 0,0.2332 0.0128,0.3787 0.0377,0.4368 0.0261,0.0578 0.0751,0.1091 0.1488,0.1522 0.074,0.0445 0.1741,0.066 0.2991,0.066 z m 3.4177,-1.4247 1.2351,-2.9826 h 1.8295 v 0.116 h -0.1466 c -0.1321,0 -0.2389,0.0238 -0.3186,0.0717 -0.0556,0.0317 -0.1001,0.0842 -0.1329,0.159 -0.0239,0.0547 -0.0363,0.1956 -0.0363,0.4244 v 2.9812 c 0,0.2332 0.0124,0.3787 0.0363,0.4368 0.0249,0.0578 0.0739,0.1091 0.1502,0.1522 0.0748,0.0445 0.1749,0.066 0.3013,0.066 h 0.1466 v 0.116 h -2.3536 v -0.116 h 0.1465 c 0.1318,0 0.2387,-0.0238 0.3183,-0.0705 0.0559,-0.0318 0.1001,-0.0854 0.133,-0.1613 0.0241,-0.0536 0.0366,-0.1945 0.0366,-0.4232 v -3.3475 l -1.7374,4.1185 h -0.0797 l -1.7614,-4.089 v 3.1816 c 0,0.2239 0.006,0.3617 0.017,0.4127 0.0298,0.1114 0.0921,0.2024 0.1888,0.273 0.0967,0.0703 0.2492,0.1057 0.4561,0.1057 v 0.116 h -1.5489 v -0.116 h 0.0479 c 0.1001,0.002 0.1934,-0.0136 0.2798,-0.049 0.0873,-0.0351 0.1522,-0.0816 0.1967,-0.1397 0.0454,-0.0582 0.0794,-0.1398 0.1035,-0.2455 0.005,-0.0253 0.007,-0.1389 0.007,-0.3436 v -2.8584 c 0,-0.2333 -0.0113,-0.3788 -0.0366,-0.4357 -0.0238,-0.0579 -0.0737,-0.1092 -0.1499,-0.1534 -0.0763,-0.0445 -0.1775,-0.066 -0.3036,-0.066 h -0.1446 v -0.116 h 1.8445 z m 5.8173,-3.0373 c 0.7197,-0.0261 1.3053,0.1831 1.7558,0.629 0.4501,0.4468 0.6752,1.0041 0.6752,1.6747 0,0.5721 -0.1681,1.0758 -0.5037,1.5112 -0.4445,0.5766 -1.0721,0.8654 -1.8839,0.8654 -0.8141,0 -1.4432,-0.2752 -1.8876,-0.8254 -0.3515,-0.4357 -0.5276,-0.9508 -0.5276,-1.5478 0,-0.6706 0.2285,-1.2291 0.6855,-1.6758 0.4572,-0.4482 1.019,-0.6574 1.6863,-0.6313 z m 0.04,0.2115 c -0.4153,0 -0.7302,0.2106 -0.9474,0.6324 -0.1763,0.3455 -0.2636,0.8425 -0.2636,1.4907 0,0.7696 0.1363,1.3394 0.4082,1.7079 0.1899,0.2568 0.4547,0.3855 0.796,0.3855 0.2296,0 0.4218,-0.0558 0.5751,-0.1661 0.1956,-0.1423 0.3492,-0.3696 0.4584,-0.6811 0.1091,-0.3116 0.1635,-0.7186 0.1635,-1.2189 0,-0.597 -0.0555,-1.0438 -0.1669,-1.3394 -0.1114,-0.2968 -0.2537,-0.506 -0.4264,-0.6279 -0.1729,-0.1216 -0.3719,-0.1831 -0.5969,-0.1831 z m 7.4885,-0.1568 v 0.116 c -0.1488,0.0204 -0.2625,0.0638 -0.3432,0.1306 -0.1103,0.0933 -0.2855,0.3493 -0.5253,0.7665 l -0.9825,1.6441 v 1.0951 c 0,0.2355 0.0113,0.3809 0.0363,0.4379 0.0241,0.0578 0.0728,0.108 0.1446,0.1511 0.0725,0.0445 0.168,0.066 0.2888,0.066 h 0.2534 v 0.116 h -2.531 v -0.116 h 0.2352 c 0.1321,0 0.2379,-0.0238 0.315,-0.0705 0.0581,-0.0318 0.1023,-0.0854 0.1366,-0.1613 0.0238,-0.0536 0.0363,-0.1945 0.0363,-0.4232 v -0.9085 l -1.0644,-1.9443 c -0.2115,-0.3844 -0.3603,-0.6095 -0.4468,-0.6778 -0.0864,-0.0683 -0.2024,-0.1035 -0.3466,-0.1057 v -0.116 h 2.1659 v 0.116 h -0.0967 c -0.1306,0 -0.2228,0.0192 -0.2752,0.0581 -0.0522,0.0374 -0.0782,0.0782 -0.0782,0.1216 0,0.0808 0.0887,0.2854 0.267,0.6117 l 0.8201,1.4919 0.8152,-1.3578 c 0.2013,-0.3376 0.3025,-0.5616 0.3025,-0.6718 0,-0.0615 -0.0287,-0.1117 -0.0865,-0.1525 -0.0751,-0.0556 -0.2137,-0.0899 -0.4161,-0.1012 v -0.116 z m 2.2788,3.2338 h -1.5817 l -0.1968,0.4414 c -0.0623,0.1476 -0.0929,0.2704 -0.0929,0.367 0,0.1284 0.051,0.2228 0.1522,0.2844 0.0604,0.0351 0.208,0.0626 0.4436,0.0807 v 0.116 h -1.5021 v -0.116 c 0.1613,-0.0249 0.2954,-0.0932 0.3991,-0.2035 0.1046,-0.1114 0.2342,-0.3413 0.3864,-0.6891 l 1.6146,-3.6034 h 0.0638 l 1.6294,3.7035 c 0.1559,0.3546 0.2831,0.5788 0.3832,0.6709 0.0763,0.0703 0.182,0.1103 0.3206,0.1216 v 0.116 h -2.1852 v -0.116 h 0.0895 c 0.1752,0 0.2991,-0.0249 0.3697,-0.0751 0.049,-0.0351 0.0728,-0.0876 0.0728,-0.1545 0,-0.0411 -0.006,-0.083 -0.0192,-0.1264 -0.005,-0.0193 -0.0377,-0.1046 -0.1001,-0.2534 z m -0.1069,-0.2455 -0.6743,-1.5409 -0.69,1.5409 z m 5.4091,-3.0906 0.034,1.5078 h -0.1363 c -0.0649,-0.3776 -0.2228,-0.6812 -0.4754,-0.9108 -0.2534,-0.2296 -0.5264,-0.3447 -0.8198,-0.3447 -0.2273,0 -0.407,0.0604 -0.5388,0.182 -0.1333,0.1204 -0.199,0.2605 -0.199,0.4172 0,0.1001 0.0238,0.1888 0.0703,0.2673 0.0637,0.1035 0.1672,0.207 0.3104,0.3093 0.1048,0.0728 0.3458,0.2035 0.7234,0.39 0.5298,0.2594 0.8869,0.5049 1.0709,0.7356 0.1831,0.2311 0.2741,0.4947 0.2741,0.7926 0,0.3776 -0.1477,0.7016 -0.4422,0.9734 -0.2945,0.2719 -0.6687,0.4082 -1.1225,0.4082 -0.142,0 -0.2773,-0.0147 -0.4037,-0.0431 -0.1273,-0.0286 -0.2863,-0.083 -0.4773,-0.1638 -0.1069,-0.0442 -0.1945,-0.0661 -0.2639,-0.0661 -0.0579,0 -0.1182,0.023 -0.1832,0.0672 -0.0646,0.0454 -0.117,0.1137 -0.1567,0.2058 h -0.1159 v -1.7056 h 0.1159 c 0.0978,0.4788 0.2866,0.8447 0.5649,1.0962 0.2798,0.2511 0.58,0.3775 0.9029,0.3775 0.2491,0 0.4481,-0.0683 0.5958,-0.2035 0.148,-0.1355 0.2217,-0.2922 0.2217,-0.4731 0,-0.1057 -0.0284,-0.2092 -0.0851,-0.3093 -0.0569,-0.1 -0.1423,-0.1944 -0.2582,-0.2854 -0.1159,-0.0899 -0.3206,-0.2069 -0.614,-0.3512 -0.4116,-0.2013 -0.7072,-0.3742 -0.8869,-0.5165 -0.1786,-0.142 -0.3161,-0.3013 -0.4128,-0.4762 -0.0966,-0.1763 -0.1442,-0.3696 -0.1442,-0.58 0,-0.3605 0.1318,-0.6675 0.3965,-0.921 0.2639,-0.2537 0.597,-0.3798 0.9995,-0.3798 0.1468,0 0.2889,0.017 0.4266,0.0522 0.1046,0.0275 0.2319,0.0762 0.3821,0.1479 0.15,0.0717 0.2546,0.1069 0.315,0.1069 0.0578,0 0.1034,-0.017 0.1363,-0.0524 0.0329,-0.0352 0.0649,-0.1205 0.0933,-0.2546 z m 3.0781,4.5096 v 0.116 h -2.3538 v -0.116 h 0.1491 c 0.1306,0 0.2364,-0.0238 0.316,-0.0705 0.0581,-0.0318 0.1024,-0.0854 0.133,-0.1613 0.0241,-0.0536 0.0365,-0.1945 0.0365,-0.4232 v -2.9812 c 0,-0.2333 -0.0124,-0.3788 -0.0365,-0.4369 -0.025,-0.0578 -0.0737,-0.1091 -0.1477,-0.1522 -0.074,-0.0445 -0.1741,-0.066 -0.3013,-0.066 h -0.1491 v -0.116 h 2.3538 v 0.116 h -0.1491 c -0.1295,0 -0.2341,0.0238 -0.3138,0.0706 -0.0566,0.0317 -0.1023,0.0853 -0.1352,0.1612 -0.0238,0.0536 -0.0365,0.1945 -0.0365,0.4233 v 2.9812 c 0,0.2332 0.0127,0.3787 0.0377,0.4368 0.026,0.0578 0.0751,0.1091 0.1488,0.1522 0.074,0.0445 0.174,0.066 0.299,0.066 z" style="fill:#ffffff;fill-rule:evenodd" id="path137"/>
      <path d="m 260.1612,347.8822 v 0.1159 h -2.3539 v -0.1159 h 0.1491 c 0.1307,0 0.2365,-0.0238 0.3161,-0.0706 0.0581,-0.0318 0.1023,-0.0853 0.1329,-0.1613 0.0241,-0.0536 0.0366,-0.1945 0.0366,-0.4232 v -2.9812 c 0,-0.2333 -0.0125,-0.3787 -0.0366,-0.4368 -0.0249,-0.0579 -0.0737,-0.1092 -0.1476,-0.1522 -0.074,-0.0446 -0.1741,-0.0661 -0.3014,-0.0661 h -0.1491 v -0.1159 h 2.3539 v 0.1159 h -0.1491 c -0.1295,0 -0.2341,0.0238 -0.3138,0.0706 -0.0567,0.0317 -0.1023,0.0853 -0.1352,0.1613 -0.0238,0.0536 -0.0365,0.1944 -0.0365,0.4232 v 2.9812 c 0,0.2333 0.0127,0.3787 0.0377,0.4368 0.026,0.0578 0.0751,0.1091 0.1488,0.1522 0.074,0.0445 0.174,0.0661 0.299,0.0661 z m 4.4765,-1.467 -0.1706,1.5829 h -4.0048 v -0.1159 h 0.1491 c 0.1306,0 0.2364,-0.0238 0.316,-0.0706 0.0581,-0.0318 0.1024,-0.0853 0.133,-0.1613 0.0241,-0.0536 0.0365,-0.1945 0.0365,-0.4232 v -2.9812 c 0,-0.2333 -0.0124,-0.3787 -0.0365,-0.4368 -0.025,-0.0579 -0.0737,-0.1092 -0.1477,-0.1522 -0.074,-0.0446 -0.1741,-0.0661 -0.3013,-0.0661 h -0.1491 v -0.1159 h 2.4083 v 0.1159 h -0.1979 c -0.1307,0 -0.2364,0.0238 -0.3172,0.0706 -0.0578,0.0317 -0.1034,0.0853 -0.1375,0.1613 -0.0238,0.0536 -0.0365,0.1944 -0.0365,0.4232 v 2.8857 c 0,0.231 0.0139,0.3787 0.0399,0.4424 0.0261,0.0635 0.0786,0.1103 0.1557,0.1421 0.0558,0.0192 0.1899,0.0294 0.4014,0.0294 h 0.3753 c 0.2389,0 0.4379,-0.0419 0.5969,-0.1261 0.1593,-0.0842 0.298,-0.2171 0.4139,-0.3991 0.1159,-0.182 0.2265,-0.4502 0.33,-0.8051 z m 3.4917,0.0423 1.2351,-2.9826 h 1.8295 v 0.1159 h -0.1466 c -0.1321,0 -0.239,0.0238 -0.3186,0.0717 -0.0556,0.0318 -0.1001,0.0842 -0.133,0.159 -0.0238,0.0548 -0.0362,0.1956 -0.0362,0.4244 v 2.9812 c 0,0.2333 0.0124,0.3787 0.0362,0.4368 0.025,0.0578 0.074,0.1091 0.1503,0.1522 0.0748,0.0445 0.1749,0.0661 0.3013,0.0661 h 0.1466 v 0.1159 h -2.3537 v -0.1159 h 0.1466 c 0.1318,0 0.2387,-0.0238 0.3183,-0.0706 0.0559,-0.0318 0.1001,-0.0853 0.133,-0.1613 0.0241,-0.0536 0.0365,-0.1945 0.0365,-0.4232 v -3.3474 l -1.7373,4.1184 h -0.0797 l -1.7614,-4.089 v 3.1816 c 0,0.224 0.006,0.3617 0.017,0.4128 0.0298,0.1114 0.0921,0.2024 0.1888,0.2729 0.0966,0.0703 0.2491,0.1058 0.4561,0.1058 v 0.1159 h -1.5489 v -0.1159 h 0.0479 c 0.1001,0.002 0.1934,-0.0136 0.2798,-0.0491 0.0873,-0.0351 0.1522,-0.0816 0.1967,-0.1397 0.0454,-0.0581 0.0794,-0.1398 0.1035,-0.2455 0.005,-0.0252 0.007,-0.1389 0.007,-0.3436 v -2.8584 c 0,-0.2333 -0.0113,-0.3787 -0.0366,-0.4357 -0.0238,-0.0578 -0.0737,-0.1091 -0.1499,-0.1533 -0.0763,-0.0446 -0.1775,-0.0661 -0.3036,-0.0661 h -0.1446 v -0.1159 h 1.8445 z m 5.6764,1.4247 v 0.1159 h -2.3539 v -0.1159 h 0.1491 c 0.1307,0 0.2364,-0.0238 0.3161,-0.0706 0.0581,-0.0318 0.1023,-0.0853 0.1329,-0.1613 0.0241,-0.0536 0.0366,-0.1945 0.0366,-0.4232 v -2.9812 c 0,-0.2333 -0.0125,-0.3787 -0.0366,-0.4368 -0.0249,-0.0579 -0.0737,-0.1092 -0.1477,-0.1522 -0.074,-0.0446 -0.174,-0.0661 -0.3013,-0.0661 h -0.1491 v -0.1159 h 2.3539 v 0.1159 h -0.1491 c -0.1296,0 -0.2341,0.0238 -0.3138,0.0706 -0.0567,0.0317 -0.1023,0.0853 -0.1352,0.1613 -0.0238,0.0536 -0.0366,0.1944 -0.0366,0.4232 v 2.9812 c 0,0.2333 0.0128,0.3787 0.0377,0.4368 0.0261,0.0578 0.0751,0.1091 0.1488,0.1522 0.074,0.0445 0.1741,0.0661 0.2991,0.0661 z m 5.0176,-4.4073 v 0.1159 c -0.1488,0.0204 -0.2625,0.0638 -0.3433,0.1307 -0.1102,0.0932 -0.2854,0.3492 -0.5252,0.7665 l -0.9825,1.6441 v 1.095 c 0,0.2355 0.0113,0.381 0.0363,0.4379 0.0241,0.0579 0.0728,0.108 0.1445,0.1511 0.0726,0.0445 0.1681,0.0661 0.2889,0.0661 h 0.2534 v 0.1159 h -2.5311 v -0.1159 h 0.2353 c 0.1321,0 0.2378,-0.0238 0.3149,-0.0706 0.0582,-0.0318 0.1024,-0.0853 0.1367,-0.1613 0.0238,-0.0536 0.0363,-0.1945 0.0363,-0.4232 v -0.9085 l -1.0645,-1.9443 c -0.2114,-0.3844 -0.3602,-0.6094 -0.4467,-0.6778 -0.0864,-0.0683 -0.2024,-0.1034 -0.3467,-0.1057 v -0.1159 h 2.166 v 0.1159 h -0.0967 c -0.1307,0 -0.2228,0.0193 -0.2752,0.0581 -0.0522,0.0374 -0.0783,0.0782 -0.0783,0.1216 0,0.0808 0.0888,0.2855 0.2671,0.6117 l 0.82,1.4919 0.8153,-1.3578 c 0.2012,-0.3376 0.3024,-0.5615 0.3024,-0.6718 0,-0.0615 -0.0286,-0.1117 -0.0864,-0.1525 -0.0751,-0.0556 -0.2138,-0.0899 -0.4162,-0.1012 v -0.1159 z m 1.5557,3.302 h -1.9443 v -0.6891 h 1.9443 z m 4.4688,-3.302 v 1.2211 h -0.116 c -0.0717,-0.282 -0.1502,-0.4844 -0.2367,-0.6071 -0.0861,-0.1239 -0.2058,-0.2217 -0.3568,-0.2946 -0.0842,-0.0397 -0.2319,-0.0601 -0.4437,-0.0601 h -0.341 v 3.4929 c 0,0.2333 0.0125,0.3787 0.0374,0.4368 0.0253,0.0578 0.0752,0.1091 0.148,0.1522 0.074,0.0445 0.1741,0.0661 0.3013,0.0661 h 0.1477 v 0.1159 h -2.3536 v -0.1159 h 0.1488 c 0.1299,0 0.2345,-0.0238 0.3138,-0.0706 0.057,-0.0318 0.1026,-0.0853 0.1355,-0.1613 0.0238,-0.0536 0.0363,-0.1945 0.0363,-0.4232 v -3.4929 h -0.3274 c -0.3024,0 -0.5218,0.0647 -0.6596,0.1931 -0.1922,0.1797 -0.3127,0.4357 -0.3637,0.7687 h -0.1298 v -1.2211 z m 2.5707,3.2337 h -1.5817 l -0.1967,0.4414 c -0.0624,0.1477 -0.093,0.2704 -0.093,0.3671 0,0.1284 0.051,0.2228 0.1522,0.2843 0.0604,0.0351 0.2081,0.0626 0.4436,0.0808 v 0.1159 h -1.5021 v -0.1159 c 0.1613,-0.025 0.2954,-0.0933 0.3992,-0.2036 0.1046,-0.1114 0.2341,-0.3412 0.3863,-0.6891 l 1.6146,-3.6034 h 0.0638 l 1.6294,3.7035 c 0.1559,0.3546 0.2832,0.5788 0.3832,0.671 0.0763,0.0703 0.182,0.1102 0.3206,0.1216 v 0.1159 h -2.1852 v -0.1159 h 0.0896 c 0.1751,0 0.299,-0.025 0.3696,-0.0751 0.049,-0.0352 0.0729,-0.0876 0.0729,-0.1545 0,-0.0411 -0.006,-0.0831 -0.0193,-0.1265 -0.005,-0.0192 -0.0377,-0.1046 -0.1001,-0.2534 z m -0.1069,-0.2455 -0.6743,-1.5409 -0.69,1.5409 z m 2.2913,1.535 v -0.1159 h 0.1488 c 0.131,0 0.2322,-0.0204 0.3013,-0.0627 0.0695,-0.0408 0.1219,-0.0978 0.1548,-0.1692 0.0193,-0.0468 0.0295,-0.1877 0.0295,-0.4232 v -2.9812 c 0,-0.2333 -0.0125,-0.3787 -0.0363,-0.4368 -0.0249,-0.0579 -0.074,-0.1092 -0.148,-0.1522 -0.0737,-0.0446 -0.1737,-0.0661 -0.3013,-0.0661 h -0.1488 v -0.1159 h 2.0217 c 0.54,0 0.9745,0.074 1.303,0.2205 0.4014,0.1797 0.7062,0.4527 0.9142,0.8164 0.2081,0.3651 0.3115,0.7778 0.3115,1.2384 0,0.3172 -0.051,0.6106 -0.1533,0.8788 -0.1023,0.2673 -0.2344,0.489 -0.3957,0.6641 -0.1627,0.1741 -0.3504,0.3138 -0.5618,0.4196 -0.2126,0.1057 -0.472,0.1876 -0.7779,0.2457 -0.1352,0.0261 -0.3489,0.0397 -0.64,0.0397 z m 1.7192,-4.271 v 3.5286 c 0,0.1863 0.009,0.3013 0.0272,0.3433 0.017,0.0419 0.0479,0.074 0.0899,0.0967 0.0604,0.0328 0.1468,0.0498 0.2605,0.0498 0.3716,0 0.6559,-0.1261 0.8515,-0.3795 0.2673,-0.3424 0.4014,-0.8745 0.4014,-1.5942 0,-0.5811 -0.091,-1.044 -0.2738,-1.3907 -0.1446,-0.2718 -0.3311,-0.4561 -0.5585,-0.5539 -0.1604,-0.0692 -0.4263,-0.1023 -0.7982,-0.1001 z m 6.3802,4.3118 c 0.1024,0.2945 0.2614,0.5165 0.4762,0.6642 0.216,0.1491 0.4856,0.2228 0.8096,0.2228 0.0887,0 0.1831,-0.009 0.2832,-0.0272 v 0.2046 c -0.3353,0.0865 -0.6355,0.1296 -0.8994,0.1296 -0.4139,0 -0.7835,-0.1012 -1.1087,-0.3036 -0.3251,-0.2024 -0.5709,-0.4992 -0.7344,-0.8904 -0.546,-0.1159 -0.9859,-0.3829 -1.3201,-0.8039 -0.3345,-0.4206 -0.5015,-0.9221 -0.5015,-1.5043 0,-0.6764 0.2274,-1.2382 0.6798,-1.6861 0.4538,-0.4481 1.0292,-0.6721 1.7274,-0.6721 0.6948,0 1.2677,0.2251 1.7192,0.6744 0.4513,0.449 0.6767,1.0097 0.6767,1.6838 0,0.5867 -0.1764,1.0973 -0.5301,1.5307 -0.3535,0.4343 -0.7801,0.6936 -1.2779,0.7775 z m -0.5935,-4.4141 c -0.4003,0 -0.7096,0.2081 -0.927,0.6245 -0.1828,0.3489 -0.2738,0.847 -0.2738,1.4919 0,0.7752 0.1363,1.3495 0.4105,1.7226 0.191,0.2602 0.4546,0.3912 0.7903,0.3912 0.3376,0 0.6015,-0.1287 0.79,-0.3844 0.2741,-0.3674 0.4107,-0.9187 0.4107,-1.6557 0,-0.7254 -0.0853,-1.2507 -0.2571,-1.5758 -0.2137,-0.4096 -0.5275,-0.6143 -0.9436,-0.6143 z m 5.1292,4.2574 v 0.1159 h -2.3538 v -0.1159 h 0.1491 c 0.1306,0 0.2364,-0.0238 0.316,-0.0706 0.0581,-0.0318 0.1023,-0.0853 0.133,-0.1613 0.0241,-0.0536 0.0365,-0.1945 0.0365,-0.4232 v -2.9812 c 0,-0.2333 -0.0124,-0.3787 -0.0365,-0.4368 -0.025,-0.0579 -0.0737,-0.1092 -0.1477,-0.1522 -0.074,-0.0446 -0.1741,-0.0661 -0.3013,-0.0661 h -0.1491 v -0.1159 h 2.3538 v 0.1159 h -0.1491 c -0.1295,0 -0.2341,0.0238 -0.3138,0.0706 -0.0566,0.0317 -0.1023,0.0853 -0.1352,0.1613 -0.0238,0.0536 -0.0365,0.1944 -0.0365,0.4232 v 2.9812 c 0,0.2333 0.0127,0.3787 0.0377,0.4368 0.026,0.0578 0.0751,0.1091 0.1488,0.1522 0.074,0.0445 0.174,0.0661 0.299,0.0661 z m 3.426,0.1567 c 0.1023,0.2945 0.2613,0.5165 0.4762,0.6642 0.216,0.1491 0.4856,0.2228 0.8096,0.2228 0.0887,0 0.1831,-0.009 0.2832,-0.0272 v 0.2046 c -0.3354,0.0865 -0.6356,0.1296 -0.8995,0.1296 -0.4138,0 -0.7835,-0.1012 -1.1086,-0.3036 -0.3251,-0.2024 -0.5709,-0.4992 -0.7344,-0.8904 -0.546,-0.1159 -0.9859,-0.3829 -1.3201,-0.8039 -0.3345,-0.4206 -0.5015,-0.9221 -0.5015,-1.5043 0,-0.6764 0.2273,-1.2382 0.6798,-1.6861 0.4538,-0.4481 1.0292,-0.6721 1.7274,-0.6721 0.6948,0 1.2676,0.2251 1.7192,0.6744 0.4513,0.449 0.6766,1.0097 0.6766,1.6838 0,0.5867 -0.1763,1.0973 -0.53,1.5307 -0.3535,0.4343 -0.7801,0.6936 -1.2779,0.7775 z m -0.5936,-4.4141 c -0.4002,0 -0.7095,0.2081 -0.9269,0.6245 -0.1828,0.3489 -0.2738,0.847 -0.2738,1.4919 0,0.7752 0.1363,1.3495 0.4104,1.7226 0.1911,0.2602 0.4547,0.3912 0.7903,0.3912 0.3376,0 0.6015,-0.1287 0.79,-0.3844 0.2741,-0.3674 0.4108,-0.9187 0.4108,-1.6557 0,-0.7254 -0.0853,-1.2507 -0.2571,-1.5758 -0.2138,-0.4096 -0.5276,-0.6143 -0.9437,-0.6143 z m 5.2702,-0.2046 c 0.7197,-0.0261 1.3053,0.1831 1.7558,0.629 0.4501,0.4467 0.6752,1.004 0.6752,1.6747 0,0.572 -0.1681,1.0757 -0.5037,1.5111 -0.4445,0.5766 -1.0721,0.8654 -1.8839,0.8654 -0.8141,0 -1.4432,-0.2752 -1.8876,-0.8254 -0.3515,-0.4357 -0.5276,-0.9507 -0.5276,-1.5477 0,-0.6707 0.2285,-1.2291 0.6855,-1.6759 0.4572,-0.4481 1.019,-0.6573 1.6863,-0.6312 z m 0.04,0.2114 c -0.4153,0 -0.7302,0.2106 -0.9474,0.6324 -0.1763,0.3456 -0.2636,0.8425 -0.2636,1.4908 0,0.7696 0.1363,1.3393 0.4082,1.7078 0.1899,0.2569 0.4547,0.3856 0.796,0.3856 0.2296,0 0.4218,-0.0559 0.5751,-0.1662 0.1956,-0.1423 0.3492,-0.3696 0.4584,-0.6811 0.1091,-0.3115 0.1635,-0.7186 0.1635,-1.2189 0,-0.597 -0.0555,-1.0437 -0.1669,-1.3394 -0.1114,-0.2968 -0.2537,-0.506 -0.4264,-0.6279 -0.1729,-0.1216 -0.3719,-0.1831 -0.5969,-0.1831 z m 6.9406,-0.1567 v 1.2211 h -0.1159 c -0.0718,-0.282 -0.1503,-0.4844 -0.2367,-0.6071 -0.0862,-0.1239 -0.2058,-0.2217 -0.3569,-0.2946 -0.0842,-0.0397 -0.2319,-0.0601 -0.4436,-0.0601 h -0.3411 v 3.4929 c 0,0.2333 0.0125,0.3787 0.0375,0.4368 0.0252,0.0578 0.0751,0.1091 0.1479,0.1522 0.074,0.0445 0.1741,0.0661 0.3014,0.0661 h 0.1476 v 0.1159 h -2.3536 v -0.1159 h 0.1489 c 0.1298,0 0.2344,-0.0238 0.3138,-0.0706 0.0569,-0.0318 0.1026,-0.0853 0.1354,-0.1613 0.0239,-0.0536 0.0363,-0.1945 0.0363,-0.4232 v -3.4929 h -0.3274 c -0.3024,0 -0.5218,0.0647 -0.6596,0.1931 -0.1922,0.1797 -0.3127,0.4357 -0.3637,0.7687 h -0.1298 v -1.2211 z m 4.3186,4.4073 v 0.1159 h -2.3539 v -0.1159 h 0.1491 c 0.1307,0 0.2364,-0.0238 0.316,-0.0706 0.0582,-0.0318 0.1024,-0.0853 0.133,-0.1613 0.0241,-0.0536 0.0366,-0.1945 0.0366,-0.4232 v -2.9812 c 0,-0.2333 -0.0125,-0.3787 -0.0366,-0.4368 -0.025,-0.0579 -0.0737,-0.1092 -0.1477,-0.1522 -0.074,-0.0446 -0.174,-0.0661 -0.3013,-0.0661 h -0.1491 v -0.1159 h 2.3539 v 0.1159 h -0.1491 c -0.1296,0 -0.2342,0.0238 -0.3138,0.0706 -0.0567,0.0317 -0.1024,0.0853 -0.1352,0.1613 -0.0238,0.0536 -0.0366,0.1944 -0.0366,0.4232 v 2.9812 c 0,0.2333 0.0128,0.3787 0.0377,0.4368 0.0261,0.0578 0.0751,0.1091 0.1488,0.1522 0.074,0.0445 0.1741,0.0661 0.2991,0.0661 z m 1.8601,-4.4073 2.2274,2.8017 v -1.9423 c 0,-0.2738 -0.0385,-0.458 -0.117,-0.5547 -0.1069,-0.1307 -0.2866,-0.1933 -0.5378,-0.1888 v -0.1159 h 1.4939 v 0.1159 c -0.1908,0.0249 -0.3195,0.057 -0.3852,0.0955 -0.065,0.0397 -0.1163,0.1035 -0.1537,0.1922 -0.0363,0.0887 -0.0544,0.241 -0.0544,0.4558 v 3.7661 h -0.1128 l -3.0529,-3.7706 v 2.8837 c 0,0.2616 0.0592,0.4391 0.1785,0.5309 0.1194,0.0921 0.2569,0.1378 0.4105,0.1378 h 0.1069 v 0.1159 h -1.6101 v -0.1159 c 0.25,-0.002 0.4229,-0.0536 0.5218,-0.1548 0.0978,-0.1012 0.1469,-0.2716 0.1469,-0.5139 v -3.1986 l -0.0944,-0.1171 c -0.0955,-0.1227 -0.1797,-0.2035 -0.2537,-0.2421 -0.0729,-0.0388 -0.1786,-0.0604 -0.3161,-0.0649 v -0.1159 z m 6.438,-0.1024 0.034,1.5078 h -0.1363 c -0.0649,-0.3776 -0.2228,-0.6812 -0.4754,-0.9108 -0.2534,-0.2296 -0.5264,-0.3447 -0.8198,-0.3447 -0.2273,0 -0.407,0.0604 -0.5388,0.182 -0.1333,0.1205 -0.199,0.2605 -0.199,0.4173 0,0.1 0.0238,0.1888 0.0703,0.2673 0.0638,0.1034 0.1672,0.2069 0.3104,0.3092 0.1049,0.0729 0.3458,0.2036 0.7234,0.3901 0.5298,0.2593 0.8869,0.5048 1.0709,0.7356 0.1831,0.231 0.2741,0.4946 0.2741,0.7925 0,0.3776 -0.1477,0.7016 -0.4422,0.9735 -0.2945,0.2718 -0.6687,0.4081 -1.1225,0.4081 -0.142,0 -0.2772,-0.0147 -0.4037,-0.043 -0.1272,-0.0287 -0.2863,-0.0831 -0.4773,-0.1639 -0.1069,-0.0442 -0.1945,-0.066 -0.2639,-0.066 -0.0579,0 -0.1182,0.0229 -0.1831,0.0671 -0.0647,0.0454 -0.1171,0.1137 -0.1568,0.2058 h -0.1159 v -1.7056 h 0.1159 c 0.0978,0.4788 0.2866,0.8448 0.5649,1.0962 0.2798,0.2511 0.58,0.3776 0.9029,0.3776 0.2491,0 0.4481,-0.0683 0.5958,-0.2036 0.148,-0.1355 0.2217,-0.2922 0.2217,-0.4731 0,-0.1057 -0.0284,-0.2092 -0.085,-0.3092 -0.057,-0.1001 -0.1423,-0.1945 -0.2583,-0.2855 -0.1159,-0.0898 -0.3206,-0.2069 -0.614,-0.3512 -0.4116,-0.2012 -0.7072,-0.3742 -0.8869,-0.5165 -0.1786,-0.142 -0.3161,-0.3013 -0.4128,-0.4762 -0.0966,-0.1763 -0.1442,-0.3696 -0.1442,-0.5799 0,-0.3606 0.1318,-0.6676 0.3965,-0.921 0.2639,-0.2537 0.597,-0.3799 0.9995,-0.3799 0.1469,0 0.2889,0.017 0.4266,0.0522 0.1046,0.0275 0.2319,0.0762 0.3821,0.148 0.15,0.0717 0.2546,0.1068 0.315,0.1068 0.0578,0 0.1034,-0.017 0.1363,-0.0524 0.0329,-0.0352 0.0649,-0.1205 0.0933,-0.2546 z m 4.8929,0.1024 v 1.2211 h -0.1159 c -0.0718,-0.282 -0.1503,-0.4844 -0.2367,-0.6071 -0.0862,-0.1239 -0.2058,-0.2217 -0.3569,-0.2946 -0.0842,-0.0397 -0.2319,-0.0601 -0.4436,-0.0601 h -0.341 v 3.4929 c 0,0.2333 0.0124,0.3787 0.0374,0.4368 0.0252,0.0578 0.0751,0.1091 0.1479,0.1522 0.074,0.0445 0.1741,0.0661 0.3014,0.0661 h 0.1476 v 0.1159 h -2.3536 v -0.1159 h 0.1489 c 0.1298,0 0.2344,-0.0238 0.3138,-0.0706 0.0569,-0.0318 0.1026,-0.0853 0.1355,-0.1613 0.0238,-0.0536 0.0362,-0.1945 0.0362,-0.4232 v -3.4929 h -0.3274 c -0.3024,0 -0.5218,0.0647 -0.6596,0.1931 -0.1922,0.1797 -0.3126,0.4357 -0.3637,0.7687 h -0.1298 v -1.2211 z m 2.7357,4.4073 v 0.1159 h -2.3539 v -0.1159 h 0.1491 c 0.1307,0 0.2364,-0.0238 0.3161,-0.0706 0.0581,-0.0318 0.1023,-0.0853 0.1329,-0.1613 0.0241,-0.0536 0.0366,-0.1945 0.0366,-0.4232 v -2.9812 c 0,-0.2333 -0.0125,-0.3787 -0.0366,-0.4368 -0.0249,-0.0579 -0.0737,-0.1092 -0.1477,-0.1522 -0.0739,-0.0446 -0.174,-0.0661 -0.3013,-0.0661 h -0.1491 v -0.1159 h 2.3539 v 0.1159 h -0.1491 c -0.1295,0 -0.2341,0.0238 -0.3138,0.0706 -0.0567,0.0317 -0.1023,0.0853 -0.1352,0.1613 -0.0238,0.0536 -0.0366,0.1944 -0.0366,0.4232 v 2.9812 c 0,0.2333 0.0128,0.3787 0.0377,0.4368 0.0261,0.0578 0.0752,0.1091 0.1489,0.1522 0.0739,0.0445 0.174,0.0661 0.299,0.0661 z m 4.4697,-4.4073 v 1.2211 h -0.116 c -0.0717,-0.282 -0.1502,-0.4844 -0.2366,-0.6071 -0.0862,-0.1239 -0.2058,-0.2217 -0.3569,-0.2946 -0.0842,-0.0397 -0.2319,-0.0601 -0.4437,-0.0601 h -0.341 v 3.4929 c 0,0.2333 0.0125,0.3787 0.0375,0.4368 0.0252,0.0578 0.0751,0.1091 0.1479,0.1522 0.074,0.0445 0.1741,0.0661 0.3014,0.0661 h 0.1476 v 0.1159 h -2.3536 v -0.1159 h 0.1488 c 0.1299,0 0.2345,-0.0238 0.3138,-0.0706 0.057,-0.0318 0.1027,-0.0853 0.1355,-0.1613 0.0239,-0.0536 0.0363,-0.1945 0.0363,-0.4232 v -3.4929 h -0.3274 c -0.3024,0 -0.5218,0.0647 -0.6596,0.1931 -0.1922,0.1797 -0.3127,0.4357 -0.3637,0.7687 h -0.1298 v -1.2211 z m 0.4025,0 h 2.3332 v 0.1159 h -0.1171 c -0.1763,0 -0.2968,0.0181 -0.3628,0.0558 -0.0661,0.0363 -0.1125,0.0876 -0.1398,0.1523 -0.0286,0.0649 -0.0422,0.2273 -0.0422,0.4878 v 2.2127 c 0,0.4048 0.0309,0.6721 0.091,0.8028 0.0615,0.1318 0.1616,0.2398 0.3013,0.3274 0.1401,0.0865 0.3172,0.1298 0.5298,0.1298 0.2447,0 0.4527,-0.0547 0.6245,-0.1649 0.1715,-0.1103 0.3002,-0.2617 0.3852,-0.455 0.0853,-0.193 0.1287,-0.5298 0.1287,-1.0097 v -1.8431 c 0,-0.2035 -0.0215,-0.3501 -0.0638,-0.4365 -0.0419,-0.0876 -0.0955,-0.148 -0.1601,-0.182 -0.1001,-0.0513 -0.2413,-0.0774 -0.4244,-0.0774 v -0.1159 h 1.5625 v 0.1159 h -0.0933 c -0.1261,0 -0.2307,0.0261 -0.3149,0.0774 -0.0842,0.051 -0.1457,0.1284 -0.1831,0.2319 -0.0284,0.0717 -0.0431,0.2001 -0.0431,0.3866 v 1.717 c 0,0.5309 -0.0354,0.9141 -0.1046,1.1497 -0.0706,0.2364 -0.2401,0.4524 -0.5108,0.6503 -0.2716,0.1978 -0.6401,0.2967 -1.1086,0.2967 -0.3912,0 -0.6925,-0.0524 -0.9051,-0.157 -0.2912,-0.142 -0.497,-0.324 -0.6163,-0.5468 -0.1193,-0.2217 -0.1797,-0.5207 -0.1797,-0.896 v -2.2139 c 0,-0.2628 -0.0147,-0.4252 -0.0431,-0.489 -0.0295,-0.0635 -0.0785,-0.1148 -0.1502,-0.1533 -0.0715,-0.0377 -0.2024,-0.0559 -0.3932,-0.0536 z m 9.0748,0 v 1.2211 h -0.1159 c -0.0717,-0.282 -0.1502,-0.4844 -0.2367,-0.6071 -0.0862,-0.1239 -0.2058,-0.2217 -0.3569,-0.2946 -0.0842,-0.0397 -0.2318,-0.0601 -0.4436,-0.0601 h -0.341 v 3.4929 c 0,0.2333 0.0125,0.3787 0.0374,0.4368 0.0252,0.0578 0.0751,0.1091 0.148,0.1522 0.074,0.0445 0.174,0.0661 0.3013,0.0661 h 0.1477 v 0.1159 h -2.3536 v -0.1159 h 0.1488 c 0.1298,0 0.2344,-0.0238 0.3138,-0.0706 0.057,-0.0318 0.1026,-0.0853 0.1355,-0.1613 0.0238,-0.0536 0.0363,-0.1945 0.0363,-0.4232 v -3.4929 h -0.3274 c -0.3025,0 -0.5219,0.0647 -0.6596,0.1931 -0.1922,0.1797 -0.3127,0.4357 -0.3637,0.7687 h -0.1299 v -1.2211 z m 2.7358,4.4073 v 0.1159 h -2.3539 v -0.1159 h 0.1491 c 0.1306,0 0.2364,-0.0238 0.316,-0.0706 0.0581,-0.0318 0.1024,-0.0853 0.133,-0.1613 0.0241,-0.0536 0.0365,-0.1945 0.0365,-0.4232 v -2.9812 c 0,-0.2333 -0.0124,-0.3787 -0.0365,-0.4368 -0.025,-0.0579 -0.0737,-0.1092 -0.1477,-0.1522 -0.074,-0.0446 -0.1741,-0.0661 -0.3013,-0.0661 h -0.1491 v -0.1159 h 2.3539 v 0.1159 h -0.1491 c -0.1296,0 -0.2342,0.0238 -0.3138,0.0706 -0.0567,0.0317 -0.1024,0.0853 -0.1353,0.1613 -0.0238,0.0536 -0.0365,0.1944 -0.0365,0.4232 v 2.9812 c 0,0.2333 0.0127,0.3787 0.0377,0.4368 0.0261,0.0578 0.0751,0.1091 0.1488,0.1522 0.074,0.0445 0.174,0.0661 0.2991,0.0661 z" style="fill:#ffffff;fill-rule:evenodd" id="path139"/>
    </g>
  </g>
  <g id="Layer1003">
    <g id="Layer1004">
      <path d="m 312.5273,472.6534 c 3.2525,0.4952 4.4388,1.1571 6.9135,2.4273 8.9954,4.6173 17.1215,-2.5087 17.4526,-7.1422 -6.1132,2.4976 -5.6656,0.4172 -13.3739,0.3563 -4.157,-0.0329 -8.5555,1.8227 -10.9922,4.3586 z" style="fill:#8aaa3e;fill-rule:evenodd" id="path143"/>
      <path d="m 338.2637,450.4683 c 3.8239,0.0119 4.0989,0.2239 7.4843,1.1571 8.6867,2.3944 15.1786,-5.8096 15.7096,-10.6557 -2.3879,1.1812 -0.6945,1.9199 -6.2586,2.1546 -2.5198,0.1063 -5.0142,0.3075 -7.3625,0.8226 -3.4854,0.7642 -8.2797,4.3588 -9.5728,6.5214 z" style="fill:#8aaa3e;fill-rule:evenodd" id="path145"/>
      <path d="m 360.1811,422.1584 c 1.105,-0.3694 2.2666,-1.1395 3.3832,-1.6007 3.3154,-1.3692 6.4655,-2.4999 8.7468,-5.1758 2.0915,-2.4528 5.2682,-10.2509 3.5235,-14.7127 -1.5789,1.7915 0.3986,1.6138 -4.1542,5.205 -4.9161,3.8778 -10.5395,8.5864 -11.4993,16.2842 z" style="fill:#8aaa3e;fill-rule:evenodd" id="path147"/>
      <path d="m 364.8124,387.2203 c 0.6279,-1.1212 0.7818,-2.1779 1.6183,-3.4036 2.2172,-3.2491 4.151,-4.3798 5.5363,-9.576 1.3595,-5.0993 -0.3319,-14.144 -3.2312,-15.7533 0.3127,6.2076 -1.8819,8.9867 -3.5053,13.8039 -0.7509,2.2275 -1.4613,4.6633 -1.3331,7.2632 0.0773,1.5653 0.5249,6.4378 0.915,7.6658 z" style="fill:#8aaa3e;fill-rule:evenodd" id="path149"/>
      <path d="m 324.9116,461.3638 c 3.7503,-0.8654 7.1059,-3.7417 8.316,-7.7666 0.8039,-2.6734 1.1968,-11.177 1.4528,-14.5803 -3.4263,0.6925 -5.9984,5.724 -6.8618,9.3963 -0.7728,3.2865 -0.7731,6.745 -1.7527,10.2393 -0.3515,1.2537 -0.7866,1.7005 -1.1543,2.7113 z" style="fill:#8aaa3e;fill-rule:evenodd" id="path151"/>
      <path d="m 353.8559,414.2293 c -1.0097,0.2455 -2.4919,3.0257 -2.9812,4.4337 -2.6116,7.5149 0.851,13.0022 -0.2599,20.4364 1.3337,-0.7773 3.0727,-3.0464 3.9654,-4.4847 2.527,-4.0726 1.9133,-9.1304 0.7732,-13.6664 -0.9924,-3.9473 -1.0148,-1.3623 -1.4975,-6.719 z" style="fill:#8aaa3e;fill-rule:evenodd" id="path153"/>
      <path d="m 364.9927,404.8002 0.1873,0.2596 c 0.0119,-0.0337 0.0638,0.0816 0.1001,0.1188 0.5309,-1.5132 0.5122,-6.069 0.2605,-7.6587 -0.5905,-3.7309 -4.1743,-7.4106 -7.3117,-9.2568 -0.9059,-0.5329 -1.5259,-0.8614 -2.5262,-1.5415 -1.5415,-1.0482 -1.3142,-1.3297 -2.2272,-1.9465 -0.7557,8.5309 4.208,11.7811 8.4557,15.8873 3.1836,3.0776 1.8426,2.018 3.0615,4.1378 z" style="fill:#8aaa3e;fill-rule:evenodd" id="path155"/>
      <path d="m 356.0321,360.4904 c -4.815,-2.1266 -8.9079,0.0802 -12.7815,-1.023 0.2311,3.4872 3.9813,6.1392 7.1436,7.1626 2.1158,0.6848 3.879,0.7401 6.2456,0.9161 2.918,0.2169 3.4472,1.1103 5.1165,1.537 -0.3909,-3.4328 -3.2606,-7.5048 -5.7242,-8.5927 z" style="fill:#8aaa3e;fill-rule:evenodd" id="path157"/>
      <path d="m 325.0704,463.5516 c 1.0876,0.6188 4.0977,1.9287 5.2027,2.1104 4.9456,0.8135 8.8866,-5.078 13.8058,-7.9314 -3.6768,-1.826 -7.5883,-1.4955 -10.9763,0.3133 -1.5639,0.8351 -2.8054,1.8859 -4.0277,2.9035 -1.2637,1.0525 -3.3772,1.906 -4.0045,2.6042 z" style="fill:#6a8531;fill-rule:evenodd" id="path159"/>
      <path d="m 351.0113,440.875 c 5.7564,1.1985 8.3832,-1.4108 10.7649,-4.5816 1.2333,-1.6416 1.9684,-2.7519 2.937,-4.7557 2.0973,-4.3393 2.3938,-3.3546 3.0155,-4.6596 -6.7028,-0.1721 -10.5974,5.2789 -13.2798,9.9935 -2.4182,4.2509 -2.9579,3.3038 -3.4376,4.0034 z" style="fill:#6a8531;fill-rule:evenodd" id="path161"/>
      <path d="m 357.84,347.0372 c -1.6152,2.9032 -0.4459,9.6913 0.65,12.4143 0.7549,1.8757 1.5905,3.0594 2.5962,4.64 2.071,3.2553 1.5478,3.4424 2.274,4.7917 0.9334,-1.1571 1.5772,-4.3546 1.6699,-6.137 0.2041,-3.9291 -2.3148,-7.9098 -4.3132,-11.0339 -0.6027,-0.9422 -1.1325,-1.4207 -1.624,-2.2359 -0.4493,-0.745 -0.7495,-1.6705 -1.2529,-2.4392 z" style="fill:#6a8531;fill-rule:evenodd" id="path163"/>
      <path d="m 366.7343,405.72 c 2.3099,-0.6562 5.1227,-4.9346 5.3356,-8.8835 l -0.6021,-13.3909 c -1.9544,1.0024 -4.155,6.3185 -4.6051,9.1503 -0.4468,2.8108 0.1165,8.6496 -0.1284,13.1241 z" style="fill:#6a8531;fill-rule:evenodd" id="path165"/>
      <path d="m 311.4836,471.272 c 1.6418,-0.8044 0.5738,-0.828 4.3674,-2.457 5.9998,-2.5764 6.6685,-9.8286 4.2565,-13.3708 -0.4142,0.7793 -0.3104,1.3601 -0.9701,2.0679 -3.348,3.5935 -7.2031,3.1881 -7.6538,13.7599 z" style="fill:#6a8531;fill-rule:evenodd" id="path167"/>
      <path d="m 337.5266,448.6003 c 1.0732,0.0739 0.3711,-0.1205 1.9832,-1.4531 1.8513,-1.5301 3.7139,-2.2515 5.379,-4.9323 0.9133,-1.4706 1.6415,-3.1365 1.7079,-5.2942 0.0433,-1.4199 -0.44,-4.8325 -0.9967,-5.8743 -0.4887,0.7209 -0.5607,1.4746 -1.0423,2.2006 l -4.3319,5.2713 c -1.4879,2.1634 -3.6522,7.2275 -2.6992,10.082 z" style="fill:#6a8531;fill-rule:evenodd" id="path169"/>
      <path d="m 354.0733,371.2192 c 3.3248,3.6341 0.5426,11.4537 9.6149,16.8135 -0.1259,-1.5534 -0.7952,-1.4576 -0.8,-5.6013 -0.007,-5.7353 -2.749,-11.929 -8.8149,-11.2122 z" style="fill:#6a8531;fill-rule:evenodd" id="path171"/>
      <path d="m 359.0748,420.6016 c 0.3492,-1.4318 0.856,-2.3034 1.531,-3.7185 3.2357,-6.7853 0.538,-13.9181 -2.7927,-14.9961 0.5193,9.1874 -4.112,7.7885 0.7135,20.1923 0.0362,-0.0519 0.0779,-0.1244 0.0977,-0.163 0.0196,-0.0385 0.0703,-0.1171 0.0933,-0.1655 0.2432,-0.5185 0.005,0.0618 0.1553,-0.3535 0.1253,-0.3444 0.1151,-0.4399 0.2019,-0.7957 z" style="fill:#6a8531;fill-rule:evenodd" id="path173"/>
    </g>
    <g id="Layer1005">
      <path d="m 251.1938,372.9577 c 1.9131,-3.492 2.7808,-9.9039 2.1436,-14.9343 -0.3668,-2.8967 -1.8675,-9.1777 -1.8712,-11.1121 -0.002,-1.4068 0.4159,-2.3298 0.5077,-3.5957 -1.5721,0.4643 -3.6524,4.5436 -4.3086,5.9907 -2.5657,5.6565 -1.6081,10.9244 0.915,16.3607 1.2384,2.6686 1.694,4.2724 2.6135,7.2907 z" style="fill:#6a8531;fill-rule:evenodd" id="path176"/>
      <path d="m 236.88,383.4247 c -0.8991,1.8824 -1.1554,6.3632 -0.8668,8.7596 0.3515,2.9166 1.1681,5.0065 2.5803,7.2493 2.5059,3.9793 4.8924,4.6307 7.9439,6.7037 1.0924,0.7421 1.4794,1.3972 2.3425,2.3748 0.5341,-1.0749 -0.8212,-6.3048 -1.3136,-7.6918 -1.8238,-5.1361 -4.0359,-7.2765 -7.3987,-11.3493 -3.8724,-4.69 -2.2691,-4.9743 -3.2876,-6.0463 z" style="fill:#6a8531;fill-rule:evenodd" id="path178"/>
      <path d="m 262.6393,458.0881 c 0.6324,4.3724 4.0992,8.2239 8.4518,9.1854 6.4082,1.4159 7.7754,-2.3287 14.46,-2.5722 -1.868,-2.7062 -5.7985,-4.5711 -9.6428,-5.1284 -2.4149,-0.3498 -4.9167,-0.163 -7.3483,-0.0482 -1.2152,0.0573 -2.6433,0.1942 -3.7128,-0.1638 -0.987,-0.3303 -1.4202,-0.9091 -2.2079,-1.2728 z" style="fill:#6a8531;fill-rule:evenodd" id="path180"/>
      <path d="m 260.1978,436.1403 c -4.2781,-5.5165 -6.8502,-5.4635 -13.5649,-7.5813 -0.853,-0.269 -2.3667,-0.7472 -3.1125,-1.1795 -1.0783,-0.6244 -1.2186,-1.4045 -2.0664,-2.0035 -0.091,4.5533 3.4367,9.284 5.8498,11.1937 4.0459,3.2018 8.6063,2.1569 14.6452,2.3641 -0.2846,-1.1534 -1.0822,-1.9309 -1.7512,-2.7935 z" style="fill:#6a8531;fill-rule:evenodd" id="path182"/>
      <path d="m 247.354,390.208 c 0.7257,-2.7309 6.6929,-4.8487 9.1865,-6.842 2.5044,-2.0018 5.9712,-6.0713 5.4165,-10.6654 -0.9343,0.3362 -1.2847,1.2019 -2.3207,1.5307 -3.1335,0.9956 -5.1393,1.3184 -8.3061,3.9385 -2.4905,2.0605 -4.9476,6.9908 -3.9762,12.0382 z" style="fill:#6a8531;fill-rule:evenodd" id="path184"/>
      <path d="m 253.1999,425.935 c 0.2872,-0.9193 0.1862,-2.1246 0.576,-3.3222 1.0752,-3.3029 5.171,-7.3562 5.7654,-14.383 0.1706,-2.0191 -0.2923,-5.1044 -1.3014,-6.3088 -0.4813,0.4969 -0.8527,1.8873 -1.5457,2.7295 -0.7351,0.8929 -1.2373,1.3626 -1.9372,2.3845 -2.5016,3.6524 -5.0105,8.1524 -3.9671,12.8242 0.4221,1.889 1.3453,4.7702 2.41,6.0758 z" style="fill:#6a8531;fill-rule:evenodd" id="path186"/>
      <path d="m 288.0799,450.4297 c 1.9826,5.1344 -1.1287,13.1171 5.0865,18.0253 1.1852,0.936 3.7729,1.9876 5.7597,1.7302 -1.508,-1.7821 -1.9496,-2.4874 -2.4145,-5.2852 -0.4062,-2.4449 -0.481,-4.2542 -1.1197,-6.5633 -0.9706,-3.5093 -3.4413,-8.0513 -7.312,-7.907 z" style="fill:#6a8531;fill-rule:evenodd" id="path188"/>
      <path d="m 274.2494,452.6793 c -0.2976,-2.4922 -0.705,-3.6031 -0.5805,-6.6555 0.0935,-2.302 0.3778,-4.5759 0.2086,-6.9584 -0.2228,-3.1391 -1.9505,-9.1693 -4.8645,-9.6146 0.0595,5.0346 -1.7992,8.653 -1.1469,14.4065 0.5386,4.7503 3.2003,6.6595 6.3833,8.822 z" style="fill:#6a8531;fill-rule:evenodd" id="path190"/>
      <path d="m 245.8568,390.695 c 0.1961,-2.7216 0.1853,-3.9549 0.7475,-6.4276 0.4725,-2.0801 1.0099,-3.9606 1.0527,-6.1469 0.0805,-4.1247 -0.784,-8.684 -3.014,-11.2462 -0.9786,7.0554 -4.5468,13.0034 -1.7723,19.398 0.4439,1.0234 2.1816,3.8535 2.9861,4.4227 z" style="fill:#8aaa3e;fill-rule:evenodd" id="path192"/>
      <path d="m 240.9778,407.8843 c 2.5222,6.3819 1.0927,17.7471 11.0806,19.2424 -0.8739,-2.1804 -1.3964,-3.0209 -2.0276,-5.7657 -0.4541,-1.9749 -0.887,-4.0235 -1.6424,-5.8031 -1.0707,-2.5214 -4.2781,-7.1643 -7.4106,-7.6736 z" style="fill:#8aaa3e;fill-rule:evenodd" id="path194"/>
      <path d="m 273.7919,454.6715 c -0.6126,-0.8484 -1.2152,-0.5049 -3.5167,-3.3959 -1.0961,-1.3771 -1.9547,-2.4973 -3.3151,-3.6601 -1.684,-1.4397 -7.7428,-4.3175 -10.171,-2.304 0.432,0.625 0.2985,0.3563 1.0316,0.9028 1.7124,1.277 5.455,8.5539 10.0998,9.5712 1.7609,0.3858 4.7237,-0.2747 5.8714,-1.114 z" style="fill:#8aaa3e;fill-rule:evenodd" id="path196"/>
      <path d="m 279.5746,470.249 c 0.5853,0.5953 1.421,0.6491 2.4729,1.1727 0.8323,0.4144 1.349,0.7611 2.132,1.2331 1.3739,0.8285 2.8683,1.8249 4.5275,2.4375 4.0209,1.4848 7.586,-0.9383 9.5371,-3.1408 -0.5788,-0.3728 -1.6985,-0.4439 -2.5055,-0.7722 -0.7523,-0.3064 -1.3601,-0.6695 -2.0843,-1.0357 -5.4338,-2.7488 -8.1562,-3.477 -14.0797,0.1054 z" style="fill:#8aaa3e;fill-rule:evenodd" id="path198"/>
      <path d="m 252.239,373.7863 c 5.5771,-1.3714 7.8077,-6.0554 9.6681,-10.7544 1.8167,-4.5895 1.9908,-2.5455 2.5044,-4.0382 -7.088,-0.9181 -9.701,4.0569 -10.6183,9.652 -0.4297,2.6223 -1.0287,3.3301 -1.5542,5.1406 z" style="fill:#8aaa3e;fill-rule:evenodd" id="path200"/>
      <path d="m 250.2901,408.6618 c 1.5154,-0.9332 3.5672,-6.0956 3.8418,-8.5584 0.4473,-4.0116 -0.9816,-7.6436 0.2722,-11.2708 -2.8143,0.5097 -5.3737,4.5587 -5.7036,8.0169 -0.4468,4.6843 1.631,7.3262 1.5896,11.8123 z" style="fill:#8aaa3e;fill-rule:evenodd" id="path202"/>
      <path d="m 279.4062,446.7954 c -5.5953,12.0084 5.55,13.7889 6.9942,16.858 0.8992,-3.6324 -0.3997,-7.7661 -1.91,-10.0276 -0.8869,-1.3283 -1.8867,-2.2666 -2.8596,-3.1453 -2.0625,-1.8632 -1.0675,-1.3442 -2.2246,-3.6851 z" style="fill:#8aaa3e;fill-rule:evenodd" id="path204"/>
      <path d="m 258.88,419.1866 c -0.868,0.5805 -2.0401,3.5594 -2.2454,4.8123 -0.6638,4.055 1.2513,7.8747 3.7815,10.4953 0.6423,0.665 1.2157,1.2164 1.7577,1.8434 0.671,0.7764 0.8139,1.3836 1.3564,2.0843 2.033,-12.4895 -4.2389,-12.6136 -4.6502,-19.2353 z" style="fill:#8aaa3e;fill-rule:evenodd" id="path206"/>
    </g>
    <g id="Layer1006">
      <path d="m 307.3017,380.9639 c -3.8591,-3.2264 -8.6911,-2.3794 -9.2906,-6.0333 1.7113,1.0715 1.6433,1.4537 4.4232,2.0503 1.5435,0.3314 3.8531,1.198 4.9442,1.3037 0.2219,-6.5917 0.07,-15.3916 0.0136,-22.3254 -0.007,-0.9221 0.1667,-2.2042 -0.3507,-2.9783 -1.7549,4.9308 -4.7123,6.923 -7.8729,10.5908 -8.2953,9.6267 -20.8046,19.7149 -21.8945,33.0587 -0.9853,12.0629 5.4796,18.4224 13.6077,22.866 7.7159,4.2182 15.3828,3.185 14.2226,12.8761 -0.1619,1.3535 -0.4859,2.5228 -0.9508,3.6484 -0.4561,1.1041 -1.2883,2.1297 -1.5965,2.998 l 4.8246,-0.1214 -0.0765,-24.8034 c -9.6781,-7.5367 -22.6673,-6.5344 -22.9643,-13.7673 0.7673,0.4255 1.5584,1.2798 2.2617,1.8431 3.1456,2.518 10.9165,4.1184 15.0041,5.4023 1.9908,0.625 3.8171,1.5814 5.8252,2.1498 l -0.1083,-13.7036 c -5.887,-4.0399 -15.4108,-4.5964 -15.6841,-9.513 1.5355,0.6933 2.317,2.5321 7.0449,3.8202 l 8.6794,2.3686 z" style="fill:#8ac543;fill-rule:evenodd" id="path209"/>
      <path d="m 320.9564,367.1436 c -0.9017,0.4453 -1.5137,0.7934 -2.0967,1.4414 0.047,0.0502 0.1199,0.1029 0.1584,0.133 l 1.059,0.7109 c 3.7863,2.2612 7.6096,3.5535 11.158,7.3097 1.5492,1.6398 2.1388,3.1731 2.9254,3.6031 2.2697,-4.8662 -11.7649,-13.301 -13.2041,-13.1981 z" style="fill:#043d22;fill-rule:evenodd" id="path211"/>
      <path d="m 316.0131,366.6546 c 2.219,-1.5239 0,0 2.0974,-1.6376 -0.2946,-0.3517 -6.1696,-5.3883 -7.7145,-8.2332 -0.1596,1.7425 0.9944,4.468 1.7889,5.648 0.582,0.8646 2.7754,3.6531 3.8282,4.2228 z" style="fill:#043d22;fill-rule:evenodd" id="path213"/>
      <path d="m 316.694,417.3814 c 0.9864,-0.5621 1.2861,-1.1868 1.7997,-1.9428 -2.4814,-1.6498 -7.0291,-5.9145 -8.106,-8.4787 -0.7265,5.1009 7.7111,12.0988 6.3063,10.4215 z" style="fill:#043d22;fill-rule:evenodd" id="path215"/>
      <path d="m 325.1154,392.9326 c 2.5563,0.826 7.3622,6.0228 9.1219,8.3894 1.0333,-3.4832 -5.0227,-8.3726 -7.5591,-10.0853 -0.8742,0.1706 -0.9984,1.1576 -1.5628,1.6959 z m -2.6438,-1.4142 4.2066,-0.2817 c -0.3836,-0.8136 -2.1785,-1.2549 -3.1405,-1.7643 -3.2582,-1.7246 -3.9249,-2.1311 -6.8672,-4.6503 -1.2408,-1.0621 -2.1751,-1.925 -3.2641,-3.2224 -0.5636,-0.6712 -1.0877,-1.2172 -1.5047,-1.8456 -0.4697,-0.7073 -0.6446,-1.3343 -1.4043,-1.6875 -1.8104,4.1122 8.7407,13.5921 11.9742,13.4518 z" style="fill:#043d22;fill-rule:evenodd" id="path217"/>
      <path d="m 313.8477,368.6692 c -2.279,2.2842 -3.7667,4.4493 -3.9203,8.0711 0.6389,-0.447 3.3928,-5.728 8.9323,-8.1553 0.583,-0.648 1.195,-0.9961 2.0967,-1.4414 -0.2528,-0.7566 -1.94,-1.9809 -2.8459,-2.1266 -1.4327,0.9839 -3.0365,2.4228 -4.2628,3.6522 z" style="fill:#8ac543;fill-rule:evenodd" id="path219"/>
      <path d="m 309.8871,406.0052 c 4.9227,-7.6085 26.7948,-16.1689 24.6518,-24.3865 -1.5579,1.6447 -0.8784,3.0654 -7.137,7.0798 -6.5974,4.2319 -17.4705,8.3302 -17.5148,17.3067 z" style="fill:#8ac543;fill-rule:evenodd" id="path221"/>
      <path d="m 309.9288,427.28 c 0.0505,-0.0425 0.1128,-0.1031 0.144,-0.136 0.0303,-0.0323 0.1023,-0.0973 0.1386,-0.1375 l 1.0341,-1.6506 c 0.4632,-0.7464 0.8535,-1.1585 1.4105,-1.7209 1.0571,-1.0673 1.9749,-1.8621 3.2327,-2.7675 4.259,-3.0665 21.5166,-11.4214 18.6086,-17.6944 -1.029,0.748 -0.7648,1.9939 -3.2148,4.051 -6.1804,5.1891 -21.2936,10.3668 -21.3537,20.0559 z" style="fill:#8ac543;fill-rule:evenodd" id="path223"/>
    </g>
  </g>
</svg>